<?xml version="1.0" encoding="UTF-8"?><svg id="Layer_1" xmlns="http://www.w3.org/2000/svg" xmlns:xlink="http://www.w3.org/1999/xlink" viewBox="0 0 362.97 123.6"><defs><style>.cls-1{fill:#979797;}.cls-2{fill:#9d9d9d;}.cls-3{fill:url(#Silver-2);}.cls-4{fill:#848484;}.cls-5{fill:#a5a5a5;}.cls-6{fill:#aeaeae;}.cls-7{fill:#8c8c8c;}.cls-8{isolation:isolate;}.cls-9{fill:url(#Silver-3);}.cls-10{fill:url(#Silver);}.cls-11{fill:#8d8d8d;}.cls-12{fill:#ffc629;}.cls-13{fill:url(#Silver-6);}.cls-14{fill:#818181;}.cls-15{fill:gray;}.cls-16{fill:#828282;}.cls-17{fill:#8f8f8f;}.cls-18{fill:url(#Silver-5);}.cls-19{fill:#8e8e8e;}.cls-20{fill:#898989;}.cls-21{fill:#fdd10d;}.cls-22{fill:url(#Silver-4);}.cls-23{fill:#aaa;}.cls-24{fill:#878787;}.cls-25{fill:#afafaf;}.cls-26{fill:#adadad;}.cls-27{fill:#221f1f;}.cls-28{fill:#838383;}.cls-29{fill:url(#Silver-7);}.cls-30{fill:#a2a2a2;}</style><linearGradient id="Silver" x1="6.93" y1="86.35" x2="383.95" y2="53.26" gradientUnits="userSpaceOnUse"><stop offset="0" stop-color="#e4e1de"/><stop offset="0" stop-color="#dcd8d5"/><stop offset=".06" stop-color="#cdc9c7"/><stop offset=".18" stop-color="#a6a2a5"/><stop offset=".26" stop-color="#89858b"/><stop offset=".52" stop-color="#f1f2f2"/><stop offset=".59" stop-color="#e2e3e3"/><stop offset=".71" stop-color="#bdbcbe"/><stop offset=".87" stop-color="#817d81"/><stop offset=".88" stop-color="#807c80"/><stop offset="1" stop-color="#cfd1d2"/><stop offset="1" stop-color="#a6a7aa"/></linearGradient><linearGradient id="Silver-2" x1="7.27" y1="90.24" x2="384.29" y2="57.15" xlink:href="#Silver"/><linearGradient id="Silver-3" x1="7.64" y1="94.48" x2="384.66" y2="61.4" xlink:href="#Silver"/><linearGradient id="Silver-4" x1="8.13" y1="100.05" x2="385.15" y2="66.96" xlink:href="#Silver"/><linearGradient id="Silver-5" x1="8.45" y1="103.77" x2="385.48" y2="70.69" xlink:href="#Silver"/><linearGradient id="Silver-6" x1="8.8" y1="107.7" x2="385.82" y2="74.61" xlink:href="#Silver"/><linearGradient id="Silver-7" x1="9.19" y1="112.12" x2="386.21" y2="79.03" xlink:href="#Silver"/></defs><rect class="cls-27" x="1.14" y="1.14" width="360.69" height="121.32" rx="4.65" ry="4.65"/><path class="cls-12" d="m355.15,123.6H7.82c-4.32,0-7.82-3.5-7.82-7.82V7.82C0,3.5,3.5,0,7.82,0h347.34c4.32,0,7.82,3.5,7.82,7.82v107.97c0,4.32-3.5,7.82-7.82,7.82ZM7.82,2.28c-3.06,0-5.53,2.48-5.53,5.53v107.97c0,3.06,2.48,5.53,5.53,5.53h347.34c3.06,0,5.53-2.48,5.53-5.53V7.82c0-3.06-2.48-5.53-5.53-5.53H7.82Z"/><path class="cls-21" d="m158.31,20.61h11.45c4.24,0,6.99,2.33,6.99,7.44,0,4.66-3.91,8.67-10,8.67h-4.79l-1.46,6.99h-7.02l4.82-23.1Zm4.82,10.61h2.72c2.85,0,3.79-1.07,3.79-2.62,0-1.78-1.59-2.07-3.07-2.07h-2.43l-1,4.69Z"/><path class="cls-21" d="m181.31,20.61h11.71c4.27,0,7.54,1.16,7.54,6.05,0,3.36-2.07,5.82-5.4,6.37v.06c2.1.58,2.39,2.56,2.39,4.72s-.26,4.53.32,5.89h-6.79c-.26-.58-.29-1.23-.29-2.26,0-1.1.36-2.52.36-3.69s-.91-2.1-2.88-2.1h-3.07l-1.68,8.06h-6.99l4.79-23.1Zm4.92,10.09h3.75c2.36,0,3.46-1.2,3.46-2.59,0-.91-.55-2.01-2.39-2.01h-3.85l-.97,4.59Z"/><path class="cls-21" d="m215.28,20.06c6.53,0,10.51,3.07,10.51,10.13,0,7.76-5.11,14.07-12.97,14.07-6.53,0-10.51-3.46-10.51-10.13,0-7.76,5.11-14.07,12.97-14.07Zm-2.26,18.44c4.27,0,5.66-5.05,5.66-8.48,0-2.1-.81-4.21-3.59-4.21-4.27,0-5.66,5.05-5.66,8.48,0,2.1.81,4.21,3.59,4.21Z"/><path class="cls-21" d="m246.24,26.53h-6.41l1.23-5.92h19.93l-1.23,5.92h-6.41l-3.56,17.18h-7.12l3.56-17.18Z"/><path class="cls-21" d="m273.58,20.06c6.53,0,10.51,3.07,10.51,10.13,0,7.76-5.11,14.07-12.97,14.07-6.53,0-10.51-3.46-10.51-10.13,0-7.76,5.11-14.07,12.97-14.07Zm-2.26,18.44c4.27,0,5.66-5.05,5.66-8.48,0-2.1-.81-4.21-3.59-4.21-4.27,0-5.66,5.05-5.66,8.48,0,2.1.81,4.21,3.59,4.21Z"/><path class="cls-21" d="m299.59,20.06c6.53,0,10.51,3.07,10.51,10.13,0,7.76-5.11,14.07-12.97,14.07-6.53,0-10.51-3.46-10.51-10.13,0-7.76,5.11-14.07,12.97-14.07Zm-2.26,18.44c4.27,0,5.66-5.05,5.66-8.48,0-2.1-.81-4.21-3.59-4.21-4.27,0-5.66,5.05-5.66,8.48,0,2.1.81,4.21,3.59,4.21Z"/><path class="cls-21" d="m315.93,20.61h7.12l-3.56,17.18h10.22l-1.23,5.92h-17.34l4.79-23.1Z"/><path class="cls-21" d="m80.51,26.36v-.48c-.51.33-.25-.43-.69-.48-.31.5-.94.35-1.58.71.02-.25-.12-.34-.26-.44l-.29.32s-.01.07,0,.12c.1.14.73-.07.45.24-.01-.07-.01-.14-.12-.12-.03.48-.45.54-.56.96.54-.06.17.1.23.47.46-.11.8-.35.91-.83-.21-.11-.38.36-.45,0,.06-.14.12-.27.22-.36.12.19.48.13.68.23.28-.63.69-.44,1.47-.36Z"/><path class="cls-21" d="m71.5,32.82c-.01-.08-.08-.11-.13-.1l-.09.09s0,0,0,0h0l-.24.26c.02.07.05.14.14.22.15-.12.22-.31.33-.48Z"/><path class="cls-21" d="m75.66,28.88c.48-.17.41-.19.9-.36.02-.46-.28-.58-.34-.95.23-.15.57-.19.56-.6h0l-1.63,1.73c.23-.02.42-.04.51.18Z"/><path class="cls-21" d="m77.46,27.44c-.34.08-.21.08-.56,0v.35c.27-.04.49-.12.56-.35Z"/><path class="cls-21" d="m74.39,20.78h-.18c.09.03.14.04.18,0Z"/><path class="cls-21" d="m71.39,33.66c-.28,0-.47.06-.57.24.18.19.65.17.57-.24Z"/><path class="cls-21" d="m71.62,34.73c.22-.08.48-.54.11-.59-.08.37-.3.15-.55.12.05.27.19.43.45.48Z"/><path class="cls-21" d="m72.85,33.9c-.39-.48.17-.84-.23-1.08-.12.37-.03.6-.33.96-.17-.08-.02-.46-.23-.48.12.4-.35.19-.56.24-.02.22.13.27.12.48.61.15.68-.02,1.23-.12Z"/><path class="cls-21" d="m70.49,27.68c.07-.28.36-.32.45-.59-.21-.37-.17.53-.56.36.07.37.08.56.1.73l.38-.41c-.07-.09-.17-.14-.36-.09Z"/><path class="cls-21" d="m74.26,24.15c-.06.02-.11.04-.18.06.09-.11.13-.27.12-.48-.28.02-.24.38-.22.71l.28-.3Z"/><path class="cls-21" d="m70.72,33.42h0s0,0,0,0h0Z"/><path class="cls-21" d="m77.01,31.63c-.06.31.65.4.67.24-.23-.06-.32-.29-.67-.24Z"/><path class="cls-21" d="m78.36,33.06c-.36.13-.29.06-.56-.12-.19.57.64.66.56.12Z"/><path class="cls-21" d="m78.8,34.25h-.45c.11.35.14.41-.12.6.01.02.01.02.02.03l.48-.5s.07-.07.07-.13Z"/><path class="cls-21" d="m82.1,21.32c.02.05.05.09.08.15-.12-.01-.2,0-.27.05l-2.42,2.56c.29,0,.32-.38.56-.58,0,.7-.72,1.31-1.33,1.42l-.67.7c.37.15.48-.53.88-.21.37-.33.44-.97,1.12-.96.21-.51.73-1.77,1.24-1.2-.58.21-.77,1.86-1.35,1.31.09.33-.22.25-.22.48.84.04,1.7-.48,1.47-1.19.61-.18,1.29-.51,1.34-.96.4.15,1.51-.09.9-.72,0,.3-.18.38-.35.48-.36-.59.26-.89-.44-1.19.01-.22.07-.4.22-.48,0,.41.59.18.68.48.09-.27-.52-.38-.11-.59.43-.06.23.55.78.36-.08-.21.09-.35.21-.44h-1.82l-.49.53Zm.3.99c-.4-.16-.04-.4-.23-.72.39.11.54.47.23.72Z"/><path class="cls-21" d="m82.63,25.17c.09-.18.28-.26.55-.24.05-.78-.92.01-.55.24Z"/><path class="cls-21" d="m35.65,34.73c-.2-.34-.6-.48-.79-.83-.53,0-.47.61-.9.72,0-.21-.14-.25-.11-.48.45-.26.54-.25.56-.84.68.3,1.22.07,1.69.48.2-.23.32-.52.78-.48-.06.35-.48.28-.57.6.17.31.6-.53.86-.28l5.27-5.6c-.16-.03-.32-.04-.51.03.27-.59-.32-.41-.67-.84.18-.28.32-.62.56-.84.03-.31-.44-.09-.34-.48.3.05,1-.2,1.24-.12-.06-.1-.12-.19-.12-.36.52,0,.68-.51,1.13-.24.21-.15-.31-.54-.35-.84.47.11.58-.13,1.12-.35-.14-.19-.87,0-1.12.12-.19-.28-.23-.64-.1-.96-.13-.24-.58.18-.79.24-.03-.2.11-.21.11-.36-.41.02-.41.5-.89.48.35-.31,1-2.01,1.35-.84h-.56c.35.43.71,0,1.12-.12-.08.37-.08.23,0,.59.14-.05.23-.15.22-.36.31.11-.15.37,0,.72.12.27.52.24.9.24.29-.56,1.04-.24,1.46-.24.08-.22.27-.98.8-1.08.21.4-.44.65-.45,1.21l1.55-1.64s.08-.09.12-.13l1.02-1.08h-4.2c.04.11.06.19-.06.32.57.06.89.17,1.35.12.41.57-.83.39-.45,1.32-.2-.02-.24.15-.45.12.03-.75-.58-.32-.79-.95-.08-.37.31-.23.24-.6-.05-.16-.29-.09-.46-.12-.22.08-.3.32-.34.6-.89,0-1.51-.19-1.59-.8h-2.18l-1.55,1.65c.11.05.23.1.37.11.09.02.1-.04.11-.12.16.36-.27.29-.72.25l-1.69,1.81c.23-.03.47-.06.72-.15.2.03.26.21.22.48-.52-.33-.79.43-1.13-.12-.03.03-.07.06-.1.09l-.44.47c.17.2-.16.47-.35.63.02-.1,0-.17-.03-.22l-.41.44c.19-.01.38,0,.56.14-.2.46-1.11.34-.79,1.2-.15-.04-.18-.21-.34-.24-.08-.37.31-.23.23-.6-.02-.05-.03-.07-.05-.09l-1.63,1.72c.18-.12.42-.14.66.04-.07.5-.41.81.11,1.07-.46.53-.49.52-.9.72-.15-.4-1.37-.3-1.46.24-.06-.02-.13-.11-.17-.2l-13.09,13.93h8.92l8.99-9.55c-.31-.05-.65-.02-.71.24Zm12.03-12.79c-.02.36-.67.32-.57-.12.27-.05.25.22.57.12Zm-.57-.96c0,.29-.2.35-.11.72-.53.09-.28-.76.11-.72Zm-4.5,2.99c-.41.33-.54.07-.89.47.02-.44.57-.75.89-.47Zm-.32-2.99c.49.04.2,1.01-.35.72.05-.31.34-.36.35-.72Zm-1.25,1.91c.43-.07.47-.55.9-.59.21.46-.64.42-.22.72-.22.14-1.11-.02-1.35-.24.1-.29.64-.05.67.12Zm-6.06,8.73c0-.33.53-.28.67-.12-.02.26-.47.05-.67.12Zm.11-.6c0-.35.67-.33.56.12-.28.05-.24-.22-.56-.12Zm.56,1.79c-.1-.31-.62-.55-.11-.72.29.14.22.4.11.72Zm3.82-5.26c.01-.23.37-.08.33-.36.21-.02.24.14.45.12-.16.24-.53.28-.78.24Zm.68-3.82c-.09.39-.42.52-.68.71.02.18.33.04.33.24-.07.52-.66.26-.33.96-.45-.09-.45-.09-.89,0,.64-.6.47-1.63,1.57-1.91Zm-2.48,1.79c.38.11.06.22.11.59h-.44c-.1-.41.45-.15.33-.59Zm0,5.37c-.04-.4-.44.33-.33-.23.42.07.65-.37.9-.12.06.46-.21.58-.11,1.07-.28-.18-.25-.5-.68-.24v.48c-.71.19-.65-.68-.9-.36-.22-.51.83.09,1.13-.61Zm-1.25,1.8c-.4-.34.1-.34,0-.95h.35c-.19.32.17.56-.23.71.07.29.53.02.56-.11.22.29-.37.48-.22.83-.22-.39-.8-.28-.67.12-.35-.15-.06-.25-.23-.6h.44Zm-.55-5.38c-.06-.1-.12-.2-.12-.36.55.1-.09.7-.11.96-.37-.04-.13-.63.23-.6Zm-.68,1.91c.15.05.17.22.34.24.02.3-.06.5-.22.6.01.27.47.05.67.12-.11.48-1.05.58-1.47.36.47-.56.53-.9.68-1.32Zm-1.35,1.8c.02-.13.11-.06.11,0,.1-.05.2-.1.22-.24.3.42-.21.62.33.59-.07.11-.13.21,0,.24-.11,0-.45.29-.67.12.24-.06.37-.68,0-.72Zm-9.45,8.01c-.34-.09-.41.12-.67.12.04-.37.59-.17.67-.48.17.05-.04.15,0,.36Z"/><path class="cls-21" d="m83.98,25.17c0-.17.05-.27.11-.36-.46-.03-.45.28-.33-.25-.23-.19-.15.02-.45,0-.04.29.21.26.12.61.27-.02.34-.23.56,0Z"/><path class="cls-21" d="m79.04,26.96c.04.3-.7.36-.34.6,0-.07.01-.14.11-.12.02.14.04.28.23.24-.16-.35.3-.6,0-.72Z"/><polygon class="cls-21" points="2.01 20.78 2.01 26.06 6.96 20.78 2.01 20.78"/><path class="cls-21" d="m78.92,42.38h-.56c.04-.18.48-.51.56-.24v.24Zm3.14-2.99c-.22.2-.14,0-.45,0,.13.37,0,.27,0,.72h-.44c.05-.3.18-.46-.23-.48.11-.11.03-.44.33-.36.04.19-.1.21-.1.36.44-.11.72-1.31,0-1.32.18-.4.32-.84.78-.95.18.09-.03.58.34.47-.16.56-.31.89-.23,1.56Z"/><path class="cls-21" d="m74.99,38.08c-.12-.08-.39-.07-.79-.12-.66.98-.88.74-1.24,1.32.15.46.51.02.79.24-.02.07-.02.12-.01.17l1.23-1.3c-.07-.1-.09-.18.02-.3Z"/><path class="cls-21" d="m70.49,42.63c0-.18.01-.34-.12-.37.24-.17.69-.52.9-.36.23-.03.22-.31.34-.48-.11-.33-.42.23-.45-.24-.3.21-.32.71-.68.84-.24-.1-.31-.63-.12-.84-.07-.36-.24.11-.45,0,.04-.43.31-.3.11-.72,1.25.05,1.64-.8,2.03-1.68-.45-.68-.05-.93-.44-1.67.43-.06.75-.24.78-.72.58.39.6-.13,1.13-.36.3.34-.57.43-.68.71.05.74.9.1,1.01.6.31.04.1-.45.33-.48.52-.04-.14.46.33.48-.02.17-.33.04-.33.24.08.3.3-.23.55-.12-.23-.26.14-.47.23-.72.27-.05.24.22.56.12.02.21-.14.25-.12.48.24.05.21-.18.23-.36.27-.08.38.02.48.14l.47-.5s.02-.06.08-.08l.05-.06c-.6-.1-.38-1.06-.96-1.18.07-.45.53.11.56-.48.18.01.43-.05.45.12.24-.26.38-.64.56-.95-.47.37-1.01.67-1.57.95-.01-.44-.16-.3-.45-.24-.13-.13-.13-.42-.12-.71.28.08.4.64.79.23-.02-.5-.46-.54-.34-1.19-.35-.01-.32.38-.79.24-.05.66-.81.57-1.12.96-.25.29,0-.29.11-.36-.68-.25-.68,1.56,0,1.31.05-.5-.35.16-.23-.48.39.03.5.35.67.6-.1.38-.48.38-.22.83-.41-.67-.69.06-1.45,0-.03.04-.04.06,0,0h0c.1-.1.34-.4.54-.35.04-.2-.1-.21-.1-.36-.42-.04-.45.32-.57.6-.25-.2.21-.65.23-.96.23,0,.14.33.44.24-.08-.38-.66-.25-.44-.96-.61-.1-.5.59-.78.84h-.46c-.06-.17-.16-.3-.22-.48-.68.57-1.27,1.13-1.91.84.11-.25.34-.36.67-.36-.08-.52.06-.81.34-.95-.21-.26-.6.31-.78.48-.03-.02-.06-.03-.07-.04l-8.8,9.36h8.93l1.5-1.61c-.19.1-.4.18-.66.19Zm4.26-8.02c.41.16.3.39.23.84,0,.18.67-.23.56.36-.55-.18-.42.35-.79.35-.19-.36.14-.84-.22-.83-.11-.45.28-.34.22-.72Zm-2.92,4.18c-.06.29-.42.27-.67.37,0-.12.14-.1.22-.12-.06-.11-.11-.2-.11-.36-.43.02-.48.45-.9.48-.03-.48.42-.44.68-.6,0-.24-.31-.15-.23-.48.12,0,.26.28.8.24-.22.21-.38.6.22.48Zm-1.23-1.19c.1-.21.35-.27.67-.24-.01.57-.26.16-.67.24Zm1.35-.84c-.68-.37-1.21.14-1.46.6-.43-.21.22-.47-.22-.84.82-.3,1.22-.27,1.69.24Z"/><path class="cls-21" d="m49.85,25.64l-.79.85c.31,0,.8-.48.79-.85Z"/><path class="cls-21" d="m43.29,21.1c.1-.13.2-.23.31-.32h-.59s-.04.05-.07.08c.04.25.31-.18.35.24Z"/><path class="cls-21" d="m32.12,29.5c.04.08.07.17.04.33.51-.45.61-.43.67-.96.27.04.11.52.34.59.3.04-.1-.67.34-.48-.05-.11-.1-.21-.23-.24-.14.03-.09.22-.12.36-.18-.23-.16-.49-.05-.68l-1,1.07Z"/><path class="cls-21" d="m31.71,29.95v-.02.02s-.01,0,0,0Z"/><path class="cls-21" d="m69.37,29.23c.05-.68.47-.57.11-1.19.36-.38,1.02-.44,1.02-1.19-.37.35-.47-.3-.68,0-.29-.03.15-.21,0-.48.27.3.48-.09.9,0v.48c.36.1.15-.4.45-.36.3.01.46.19.51.41l2.08-2.21h-.34c.33-.53.06-.46-.45-.6.06-.56.53,0,.57-.48.45-.06.76.06,1.04.2l.17-.19c-.04-.21-.46-.32-.66-.13.06-.18.18-.31.22-.48.42.24.46.22.9.12h0l1.42-1.51c-.16.02-.34.04-.52.08.02-.21-.14-.25-.11-.48.31.42.91-.83,1.13-.12.07-.11.13-.23.18-.32h-2.76c.09.09.05.31.21.32-.09.13-.24.08-.45,0,.04.29.18.45.12.84-.27-.53-1.19-.61-1.46-.24-.09-.49.64-.76,1.12-.48.17-.44-.45-.06-.34-.44h-5.24l-.38.4c.15.05.3,0,.35-.31.17.1.36.18.35.48.45-.01.94-.12,1.34,0-.85.37-1.99.53-2.59,1.2.24.59.77.43,1.57.84.02.29-.17.37-.22.6.58-.16.22-.16.79,0-.15.76.36.1.33.72-.28.24-.49-.31-.9,0,.12.69.88-.04,1.02.6.3-.11.2-.54.45-.12-.02-.1.04-.12.11-.13-.1-.17-.17-.37-.45-.35.45-.44.92.65,1.57-.24v.6c-.69.68-1.79-.05-2.24.84-.47-.2-.66.05-1.02-.12-.06-.38.29-.34.45-.48-.07-.24-.34-.24-.12-.48-.16-.06-.58.14-.55-.12-.15.05-.24.15-.24.35-.4-.02-.43-.16-.79,0,.15-.16.07-.36-.11-.48.43-.28.8-1.17,1.46-.83-.17-.51-.7-.29-1.01-.12.35-.58-.31-.46-.45-.84-.05-.38.28-.34.45-.48-.2-.13-.06-.43.03-.68l-21.08,22.42h8.92l13.92-14.8s-.07,0-.11-.02Zm4.27-6.33c-.24.26-.24.77-.67.84.06-.45.18-.85.67-.84Zm-1.13,1.43c.12,0,.1.15.12.24.21-.05.2-.34.55-.24.03.22-.13.25-.1.48-.42-.01-.32-.14-.68,0-.05-.25.08-.32.11-.48Zm-2.91,2.52c-.16.19-.74.41-.68-.13.35.18.44-.04.68.13Zm-.91-1.92c.04.31-.15.39-.45.36-.03-.31.15-.39.45-.36Zm-.45,1.55c.02-.1-.05-.12-.12-.12.19-.19.36-.05.56,0-.01.51-.4.61-.56.96-.38-.26.15-.55.12-.84Zm.34,2.51c.35.06.36-.26.34-.6-.15-.19-.5-.18-.67-.35.07-.8,1.16-.88,1.35-.12-.26.14-.31-.03-.56.24.42.31-.06.85.22,1.31-.42.05-.66-.09-.67-.48Z"/><path class="cls-21" d="m23.73,32.82c-.24-.05-.3.08-.45.12.01.15.11.2.22.22l.24-.24s0-.07,0-.1Z"/><path class="cls-21" d="m36.77,34.04l.2-.21c-.11-.02-.2,0-.2.21Z"/><path class="cls-21" d="m46.33,23.62c0,.12.03.18.06.21l.12-.13s-.09-.08-.17-.08Z"/><path class="cls-21" d="m7.66,34.61c-.05-.37.24-.38.56-.36.04.21-.09.22-.23.24.02.03.05.07.08.1l3.18-3.39v-.06s.04.01.05.02l.23-.26h-.06c-.05-.25.08-.32.12-.47.2-.07.22.03.22.18l5.75-6.11c-.58.19-1.17-.29-1.37-.87.61-.15.61.37,1.01.12.24-.03.03-.53.22-.6.1.08.2.15.22,0,.41.1-.01.38.12.84.24-.05.35-.19.43-.16l2.85-3.03h-5.22c-.12.1-.23.19-.42.2.03-.06.08-.13.11-.2h-3.4l-2.89,3.08c.06,0,.13,0,.22,0,.04.32-.16.39-.45.36,0-.05,0-.08,0-.12l-7.01,7.46v9.49l5.98-6.35c-.06-.09-.2-.07-.32-.08Zm4.62-7.17c.08-.38.25-.68.67-.72-.09.65-.33.47-.67.72Zm.11-2.4c.16.01.32.02.33-.12.29.01.28.45.12.6-.16-.14-.5-.1-.45-.48Zm2.81.6c.08-.24.39-.43.56-.24-.09.24-.39.43-.56.24Zm.45-3.82c-.16-.32-.42-.45-.79-.24-.02-.75,1.23-.16.79.24Zm-1.47,2.63c.24-.66.59-.68.68-1.32.21.05,1.07.23.34.24-.33.41-.97,1.19-.23,1.55-.06.1-.11.19-.11.36-.42.13-.32-.3-.68-.24.29-.14.29-.46,0-.6Zm-1.68-1.91c-.06.09-.11.2-.11.36.08-.06.18-.12.33-.12,0-.19.06-.45-.1-.48.05-.18.14.05.33,0v.48c.41.13.18-.45.56-.36v.47c-.41-.17-.25.25-1.22.12.02-.21-.12-.6.22-.48Zm-.11.84h-.45c-.09-.46.53-.46.45,0Zm-.91,3.34c.36.06.44-.26.68,0-.26.34-.24.54-.79.72-.08-.37.2-.35.1-.72Zm-.89,5.02c-.1-.09-.26-.13-.45-.12-.03-.58.52-.32.45.12Zm-.45-8.25c-.06.49-.32.24-.68.24.01-.31.38-.24.68-.24Zm-.68,5.49c.4.01-.24.4.12.36-.11.36-.29-.16-.57,0,.03-.24.41-.11.45-.36Zm-.68-2.75c.07.47-.61.15-.89.24.02-.38.56-.21.89-.24Z"/><path class="cls-21" d="m19.8,35.21c.13-.17.12-.28-.11-.36.07-.12.25-.13.22-.35-.14-.5-1.03.25-1.01-.48.5.02.96-.02,1.24-.24.33.72.99-.16,1.46.36.19-.11.39-.22.34-.6.15.05.23.15.23.36.38-.38-.36-.57-.12-1.2.34-.12.56-.35.68-.71-.18-.01-.63-.14-.9-.36,0,.65-.94-.37-.34-.72-.52-.37-1.25-.41-1.79,0,.81.11-.56.38.22.84-.8-.34-.82-.2-1.68-.24.04-.56-.36-.67-.34-1.2.13.02.2-.03.22-.12.29.52.13.04.68.24.23-.24.45-.48.67-.72.27-.04.55.52.79.12.21.31-.22.23-.34.48,0,.23.44-.07.45-.24.14.05.23.15.23.36.21-.31.64-.25.78.12.28-.15,0-.88.46-.84.03.27-.04.45-.23.48.16.34.58.38.9.24-.11.59-.77.11-.9.84.13.6,1.25-.33.9.48.44.15.29-.33.45-.48.46.08.94.33,1.24.24-.02.3-.17.46-.46.48v-.36c-.22.2-.14,0-.45,0-.37,0-.11.67-.33.83.3.03.49-.04.45-.36.14.48,1.02.14.33.48-.01.12.08.14.19.13l6.31-6.7c-.21-.03-.33.03-.31.24-.41.04-1.11-.22-.91.48-.69-.29-.1-.49-.56-.96.29-.05.52-.05.79-.36.05-.29-.51.06-.34-.36.15-.02.42.41.45.13.23-.3-.04.37-.12.47.15.19.57-.35.9-.36-.08-.12-.26-.13-.22-.36-.13-.02-.2.02-.23.12-.31-.18,0-.7.23-.72-.04-.15-.2-.18-.23-.35-.52-.08-.64.27-1.12.24-.06-.58.77-.21.89-.59-.07-.37-.24.11-.45,0,0-.75.46-.25,1.01-.37.11,0,.08-.14.11-.24.41.33-.3.46-.34.72.18.16.36.34.56.48.19-.11.14-.48.57-.36.02.26-.09.38-.34.36.17.28.33.27.45.35.31-.11-.17-.32.12-.47.31-.09.23.23.44.23-.02.15-.22.12-.22,0-.34.84-1.27.47-1.13,1.66l.45-.47s-.09-.07-.11-.11c.14-.23.26-.24.39-.19l3.75-3.99c-.29.03-.54.03-.44-.36.29-.04.47.04.45.34l.4-.43h-1.92c-.37.13-.51.51-.61.92-.09-.19-.36-.18-.35-.48.54.01.26-.17.14-.44h-2.3c.02.17,0,.39.24.32-.06.42-.33.53-.11.95-.34.09-.21.09-.56,0,.53.37-.28.96-.68.48v-.72c.35.13.3.05.56-.12-.29-.25-.72-.25-1,0-.16-.04-.1-.31-.12-.48.36.02.4-.28,1.01-.24-.05.15-.14.25-.34.24.02.1.11.12.11.24.39-.07.74-.29.63-.68h-1.86s0,.05,0,.08c-.9-.23-.08.34-1.01,0,0-.04.04-.06.05-.08h-.71c.04.1.1.17.08.32-.36-.39-.04.36-.45.24.13.14.13.42.12.71-.21.1-.41.21-.68.24.17-.33.22-.64.25-.93l-3.42,3.63c-.07.28.04.27-.09.52-.59-.1-.54.47-.9.59-.01-.01-.01-.02-.03-.03l-10.19,10.82c.23.08.45.27.77.21-.12.14-.12.42-.11.71-.35-.15-.32.03-.79,0-.03-.23-.18-.32-.28-.48l-6.28,6.69h8.91l9.01-9.58c-1.16-.1-1.75.4-2.49.75Zm11.47-11.71c-.45-.12-.34.36-.79.24.21-.36.1-.34.22-.72.4-.02.37.4.68.48-.02.13-.12.06-.12,0Zm.79-.37c-.02-.33.27-.34.56-.36.04.37-.37.25-.56.36Zm2.13-1.67h-.45c-.08-.45.54-.45.45,0Zm-1.13.48c.45-.19.05.52.35.48.04.28-.52-.07-.35.36-.09-.07-.19-.15-.22,0-.12-.03-.06-.12,0-.12-.02-.14-.2-.1-.34-.12,0-.83.92.45.56-.6Zm-2.58,0c.14-.26,1.38.03.91-.48-.02-.1.03-.11.11-.12h.22c-.31.46.36.26.78.48-.04.23-.32.22-.22.6-.37.03-.23-.47-.56-.48-.22-.07-.3.7-.33.12-.16.48-.56.69-1.02.84-.58-.4.87-.74.11-.95Zm-2.58,2.39c-.02-.46.18-.69.56-.71-.26.15-.12.75-.56.71Zm.11-3.11c-.03.28-.39.22-.34.6.39.07.37-.57.67-.24-.04.71-.88.57-1.46.72.32-.42.52-.97,1.12-1.08Zm-6.74,7.29c-.03-.44.7-.05.79-.36.29.31-.56.54-.79.36Zm1.8,2.28c.35-.11.28-.66.67-.72-.07.29-.1.61-.45.6.02.1.12.12.12.23.37-.12.62-.36.79-.71-.04.58.37.11.78.36-.18.83-1.51.91-1.91.24Zm.78-4.79c-.42-.21.25-.2.23-.36.11.2.31.3.67.24-.18.68-.7-.27-.9.12Zm.11.71v.24c-.09.06-.17.13-.34.12.07-.38-.21-.37,0-.6.12.08.12.28.34.23Zm-.11,2.39c.03-.37.48-.28.56-.59.25.2-.24.62-.56.59Zm.23.84c-.37-.24.79-1,.9-.36-.5-.09-.74.09-.9.36Zm1.8-1.79c-.35.15-.66.33-1.01.48-.04.2.08.22.23.24-.02.3-.38.23-.68.23.44-.47.51-1.74-.11-1.67.29-.67.99.51,1.02-.36.33.13.21.65.67.36.1.33-.76.56-.11.71Zm-.67-2.39c.34-.12.2.27.22.48h-.33c-.06-.25.07-.31.11-.48Zm.78-1.91c.08.34-.95.13-.67.6-.07.29-.24-.29-.34-.35-.27.22-.64.35-1.13.35.42-.53,1.5-.87,2.13-.6Zm-2.47,2.03c-.22-.2-.14.01-.44,0,.02-.38.25-.53.67-.48.02-.01.03-.02.05-.03-.12.08-.37.27-.28.51Zm.11-1.91c-.1.3.41.72-.11.72-.02-.19.11-.21.11-.36-.57-.2-.26.52-.67.48.13-.39.15-.87.67-.84Zm-.67,3.94c.04.4.59.14.56-.24h.57c-.08.36-.88.57-.67.84-.59.44-.48-.23-1.01-.12,0-.3.16-.46.44-.47-.28-.48-.62.15-1.23,0,.45-.59,2.07-.34,1.35,0Zm-1.69-.71c.1-.02.1.04.11.12.1.33.26-.36.46,0-.22.33-.53.55-1.12.48.01-.38.67-.08.56-.59Zm-.11,2.51c-.49.18-.62-.53-.79,0-.23-.11.04-.67.34-.6-.14.67.44-.02.45.6Zm-.56-2.39c.03.21-.11.24-.12.12-.17.05.05.15,0,.35-.37-.07-.52.09-.78.12.19-.31.47-.53.9-.6Zm-1.13,1.67c0,.3-.16.46-.44.48-.08-.4.18-.43.44-.48Zm-11.12,12.67c-.49-.07-.64-.04-.9-.12.22-.35,1.4-1.09,1.57-.36-.44.25-.87-.07-.67.48Zm12.7-10.64c-.3.17-.49.44-1.02.36.26-.2.61-.31,1.02-.36Zm-.34.96c-.2.22-.45-.04-.45-.36.21.05.49.05.45.36Zm-3.16,1.44c.07-.34.39-.39.46-.72.37-.06.53.08.79.12-.07.29-.42.27-.68.36.32.26,1.3.19,1.35-.24.33.09.44.42.9.36.11-.36-.25-.21-.45-.24.1-.18.28-.25.56-.24-.22.59.38.32.34.72-.64.08-.82.05-1.12.36-.21-.5-1.21-.32-2.03-.24.02-.14-.02-.21-.11-.23Zm.46,1.67c-.05-.65.48.04.56-.48.16.07-.14.64-.56.48Zm1.91.6c-.13.02-.1.21-.12.35-.37-.19-.09-.61-.66-.35-.02-.35.33-.28.33-.6.25.21.48.45.68.72-.1-.02-.12-.11-.23-.11Z"/><path class="cls-21" d="m45.15,40.12c-.11-.02-.17-.1-.28-.12-.04-.28.32-.14.33-.36.23.08.2.14.15.27l11.13-11.83c.01-.14.54-.38.19-.52.1-.21.18-.11.3,0l.27-.3c-.11.03-.24.07-.34.18-.02-.22.13-.26.11-.48.25-.07.34,0,.44.1l.51-.55c-.13,0-.24.14-.38-.02-.14-.39.36-.09.22-.48h.34c-.15.15-.1.24-.06.36l1.59-1.69c-.29.05-.13-.38-.41-.35.14-.26.58-.28.96-.22l1.11-1.18c-.19-.22-.5-.32-.71-.51.07-.47.76-.41.45-.96h.56c.06.27-.22.17-.23.36.15.3.69.02.9,0-.01.03-.01.06-.01.08l1.07-1.12h-8.93l-.49.52s.05.02.06.04c-.06.08-.14.12-.23.15l-1.59,1.69c.6.14.71-.1,1.7-.05.11.5-.27.52-.67.49.11.24.95.33.45.83.1.41.21.07.57.12-.15.33-.98.42-.57,0-.2-.01-.24.15-.45.13v-.48c-.21-.02-.24.15-.45.12-.28-.3-.37-.79-.88-.83l-.85.92c.23-.12.24-.47.61-.44.79.53-.37,1.52.12,1.91-.3.44-1.19.62-1.81.36.14.35.35.27.56.72-.35-.19-1.13-.82-.9,0h-.45c-.01-.18.05-.43-.1-.46l-.3.31s.1.04.17.04c.01.44-.09.08-.31.11l-.02.03c.1.51.54.08.77.34.12.48-.33.36-.22.84-.11,0-.08-.15-.11-.24-.13-.02-.2.03-.22.12-.09-.34-.37-.47-.33-.94l-.61.65c.15.39.55.61.95.4.09.33-.22.24-.22.48-.22-.49-.56.06-1.01,0,.18-.35-.05-.36-.21-.35l-4.48,4.76c.3,0,.62.08.63.25-.27-.19-.67.26-1.01.36.11-.16.17-.3.16-.38l-4.47,4.76c.27.08.57.05.48-.42.4.07.06.56-.22.59.26.1.34.12.67.36-.25.45-.62-.34-1.23,0-.02-.16.03-.22.08-.3l-5.44,5.78h8.93l3.69-3.93Zm13.88-16.49c-.26.03-.84.37-1.46.35v-.6c.09-.11.3-.07.33-.24.51.31.49.33,1.13.12.03.22-.12.25-.12.12-.15.04,0,.21.12.24Zm-.34-.84c.12-.27.51-.25.9-.24-.01.48-.6.38-.9.24Zm.56.96c.22-.26.65-.8,1.13-.6-.1.29-.53.55-1.13.6Zm1.01-2.15c-.14.34-.94.28-1.01-.12.4-.38.45.32,1.01.12Zm-1.23,0c-.04.44-.23.53.33.47.05.36-.36.25-.55.36-.03-.33-.33-.37-.57-.48.11-.28.39-.38.79-.36Zm-1.36.36c.18.05.1.37.46.24-.38.35,0,.31,0,.84-.21-.05-.21-.35-.56-.24.11-.17.45-.57-.12-.48.04-.16.2-.19.22-.36Zm-.56,3.35c.2.17.26.11.22-.24h.45c.02-.26-.1-.38-.34-.35.28-.32.51-.07.9-.36-.22.29-.3.8-.11,1.2-.14.06-.23.15-.23.36-.41.09-.48-.2-.9-.12v-.48Zm-1.01,1.67c-.4-.28-1.29,1.25-1.58,0,.79.07,1.17-.28,1.47-.72.5-.01-.06.36.11.72Zm-.8-1.08h.35c.02.1-.05.11-.12.12.08.12.26.13.22.36-.09.07-.19.15-.22,0-.11.12-.23.24-.34.36-.26-.22.44-.45.11-.83Zm1.58-1.07c.05.37-.16.46-.23.71-.51.02-.44.09-.9,0,.03-.13.23-.08.23-.24.1,0,.08.15.11.24.15-.12.42-.11.45-.35-.04-.21-.39.15-.34-.36.42,0,.32.13.67,0Zm-1.23-.84c.67.31.23-.61.77-.6-.22.37.2.99-.54.95.04.41-.05.67-.12.96-.36-.11-.75.07-.89-.48.63.32.79-.53.79-.84Zm-1.36-2.75h.34c-.09.34.16.31.12.6-.27.05-.24-.22-.56-.12.08-.11.11-.28.11-.48Zm-.9,5.14h.33c0,.22.14.25.12.48-.1.01-.11-.05-.12-.13-.16.04.11.21-.1.24h-.23c.22-.23.01-.3,0-.6Zm-4.16,5.86c-.15.54-.61.05-.67.59-.34,0-.28-.42-.34-.72.54.08.4.25,1.01.12Zm-3.26,5.97c-.36.11-.23-.31-.45-.36.17-.35.51.09.45.36Zm.9-3.58c-.45-.21-.87-.38-1.02.24-.2.34.11-.3,0-.6.57.12.56-.37,1.02-.36v.72Zm-1.58-.48c.09-.1-.03-.63.23-.84.67-.22.82.24,1.24-.12.06.43-.41.3-.34.72-.64-.33-.82.57-1.57.47-.22-.23.06-.22,0-.59.36-.11.14.39.44.36Zm-.33-1.68c.3,0,.2,1.03-.23.96.12-.28.07-.72.23-.96Zm-.11,6.58c.09.07.19.14.22,0,.28.14-.34.35-.34.59-.3-.11.12-.42.12-.59Zm-1.92,2.99c-.23.06-.21-.17-.21-.36-.16.08-.21.26-.23.48-.35-.35.18-1.19.44-1.44.01.33-.18.25,0,.48.22-.05.5-.05.45-.36.54.31-.54.59-.45,1.2Zm.57-2.63c-.13-.02-.2.03-.22.12-.15-.05-.23-.15-.23-.35-.1-.03-.11.04-.12.11-.23-.04.13-.41.35-.36-.15.39.36.1.22.48Zm-.12-2.39c.32.38-.57.5-.79.71.06-.46.6-.4.79-.71Zm-.66,1.43c-.02.3-.38.24-.68.24-.1-.43.44-.17.68-.24Zm-2.58,2.99c.04-.46.15-.46-.23-.6.03-.18.34-.04.34-.24.13.02.06.12,0,.12-.02.2.11.21.11.36.32-.13.48-.13.79,0,.05.45-.39.37-.56.6-.13-.03-.07-.12,0-.12-.03-.16-.28-.1-.45-.12Zm.67-1.56c.24.16-.29.48-.67.36-.05-.41.6-.07.67-.36Zm-1.12-1.79c.27-.04.42-.19.79-.12-.01.17-.02.34.11.36.01.26-.4.06-.56.12-.04.31.24.3.45.36-.25.38-.56.12-1.01.12.43-.16.25-.3.23-.83Zm-1.57,4.06c-.21-.23.07-.22,0-.6-.22.05-.01.55-.45.36.18.18.12.53-.23.48.06-.37-.09-.53-.45-.48.14-.34.64-.27.79-.6.4.04.41.33.79.12-.02-.26-.29-.26-.57-.24.05-.41.3-.15.12-.6.59-.03.62.53,1.12.6.08.45-.43.26-.45.6.24.21.32,0,.68,0-.06-.09-.12-.19-.11-.36.26.05.24-.22.55-.12-.16.98-1.01.71-1.79.84Zm1.79,0c.05-.75,1.04.12,1.12-.48.41.28.36.32,1.01.24-.52.73-1.36-.16-2.13.24Z"/><path class="cls-21" d="m45.99,23.98c-.03-.25-.49-.03-.57-.24.03.28.23.49,0,.71-.37-.3-.51-.15-.33.36h-.67c.05.23.44.09.33.48-.6.04-.53.79-1.12.83.07.14.24.17.4.21l1.79-1.91c0-.18.17-.32.17-.44Z"/><path class="cls-21" d="m66.6,30.31c-.39-.12-.79.34-.46.59-.14-.51.53-.14.46-.59Z"/><path class="cls-21" d="m64.92,25.53c.06.66,1.14.28,1.35.24-.23-.18.05.03.11,0,.53-.24.05-.79.11-.48.03.17-.4-.46-.45-1.08-.27-.05-.24.22-.57.12.22.28-.21.87.12,1.2,0-.07.09-.14.12,0-.19.38-.45-.02-.79,0Z"/><path class="cls-21" d="m59.81,20.78h-.56s-.03.06-.06.08c.02.14.47.1.62-.08Z"/><path class="cls-21" d="m61.15,20.78h-.71c.21.06.43.07.71,0Z"/><path class="cls-21" d="m63.11,20.78h-.05s0,.02.02.03l.03-.03Z"/><path class="cls-21" d="m70.27,20.78c.13.06.28.14.38.2-.23.35-.83.23-1.35.12.03-.15.08-.25.16-.32h-.8c-.01.06-.02.11-.04.2-.02-.07-.05-.14-.11-.2h-.24l-2.5,2.66c-.05.1-.13.18-.18.29.34-.08.65-.19.68-.6.1-.02.11.05.11.12h.22c-.25.59.29,1.04.34,1.68.27,0,.94-.63.89.12.36,0,.24-.54.78-.35,0-.24-.31-.16-.23-.48.44.15.54.08,1.13-.12-.14.15-.04.19,0,.35.21-.01.37-.08.45-.24.34.1-.14.3,0,.6.32-.34.44-.35,1.02-.25-.07.1-.13.2-.12.36.37.04.42-.26.67-.36.4.08.03.75-.11.96.36.1.35-.18.45-.35.49,0-.26.72.45.59-.05.15-.1.25-.12.33l4.99-5.31h-6.94Zm-3.89,2.11c.14-.21.23-.47.57-.47-.13.22-.14.58-.57.47Zm1.69.36c-.14-.02-.2.03-.23.12-.22-.08-.3-.32-.34-.6.15.16.42.16.45-.12.24-.02.05.43.12.6Zm4.15.25c-.64,0-1.49.21-1.68-.6-.48.44-.82.55-1.35.73-.16-.47.43-.82,0-1.32.09-.02.11.05.11.12.36.09.14-.42.57-.24.07.27.17.49-.12.72.2.36.99-.28.79-.36.52-.51.07,1.02.79.71.18-.1.24-.37.22-.71.44-.03.42.43.89.36.1.37-.3.23-.22.6Z"/><path class="cls-21" d="m61.66,21.94c-.04.17.03.23.12.26l.27-.28c-.11-.06-.24-.1-.38.02Z"/><path class="cls-21" d="m110.77,29.71c-.23.04-.29.24-.45.36.12.04.18.13.2.25l.25-.28v-.33Z"/><path class="cls-21" d="m97.85,43.58s.04.1.06.15l12.27-13.05s-.04,0-.08,0c-.08-.29.34-.92.22-1.32h.45c-.04.28.18.27.12.57l1.52-1.61c-.52.06-.96-.07-.73-.86.01-.27.48-.05.67-.12.08-.11.1-.48.22-.84-1.02.58-1.6,1.27-3.03,1.19.09-.42.45-.55.78-.72.09.11.13.27.12.48.35.18.23-.78.33-.12.16-.03.1-.3.12-.48.18-.04.18.11.33.12.36-.77,1.5-.5,2.36-.84-.43.36-1.12.84-.67,1.44.12-.02.2-.06.3-.11l1.71-1.8c-.21.03-.2-.18-.21-.36-.45.12-.64.51-1,.72-.64-.09-1.23-.21-1.69-.48.49-.71,1.58-1.11,2.03-.12.15-.38,1.21-.29.93.17l4.51-4.8h-8.92l-8.61,9.17s.05,0,.06,0c0,.24-.3.15-.22.48-.05-.05-.14-.07-.22-.09l-.29.3c.34-.02.68.04.95.15-.63.07-.8.42-1.46.59v-.2l-2.44,2.6s.06,0,.07,0c-.06.36-.26.45-.49.45l-.29.32c.08.05.15.13.34.07-.11.39-.32.29.11.48-.19.37-.62.21-1.05.08l-.55.6c.03.31-.01.56-.19.88-.26-.1,0-.62.12-.72-.02-.01-.03-.03-.03-.04l-7.67,8.15h8.6c.02-.33.19-.5.56-.47Zm19.66-21.03c-.48.64-1.46-.59-1.91.24.44-1.19,1.42-.41,1.91-.24Zm-7.19,4.31c.05-.18.1.01.23,0,.16-.06-.04-.16,0-.36.2.22.28-.09.67,0-.13.28-.61.6-.9.36Zm.9-1.44c-.15.31-.67.34-.67-.12.13-.1.3-.16.55-.12,0,.14.03.21.12.24Zm-.12-2.51c-.32.45-.38.22-.89.12.08-.27.62-.05.89-.12Zm-.67-1.31c.45.15-.03.25,0,.6-.24-.35-.34-.11-.79-.24.16-.49.68.14.79-.36Zm-.34,3.83c-.01.23-.38.08-.33.36-.21-.03-.26-.2-.23-.48.26-.04.43.02.56.12Zm.34,2.27c.48.71-.87.69-1.12.6-.03-.62.84-.3,1.12-.6Zm-1.46-2.99c-.08.12-.26.12-.23.35-.75-.29-.78.29-1.46.36.06-.1.11-.2.11-.36-.02-.14-.2-.09-.34-.12.48.06,1.18-.75,1.91-.24Zm-11.81,18.17c.24-.25.42-.44.79-.23-.11.24-.43.25-.79.23Zm.68-3.82c-.24-.11.04-.67.33-.6.05.37-.3.31-.33.6Zm4.27-3.71c.03.32-.05.51-.34.48.01-.21-.14-.25-.11-.48h.45Zm-.91.36c-.1.67-.76.03-1.01.47-.06-.17-.11-.14-.22-.47.56-.08.91.14,1.23,0Zm-2.24-.49c-.02-.15-.33-.15-.33,0,0-.64,1.1-.79,1.68-.36-.46.63-1.19.25-1.34,1.2.62-.17.89.6,1.46.84-.1.21-.25.37-.45.48-.31.12-.31-.68-.57-.24-.29-.29.15-.63-.22-.84-.87.55-1.13-.66-2.25-.12,0-.2-.09-.31-.23-.35.55-.59,1.63.01,2.24-.6Zm-2.58,3.59c-.29,0-.36-.22-.45.12-.29,0-.23-.4-.23-.72-.31-.09-.29.17-.56.12.15-.6.73,0,.68-.83.43-.11.39.29.67.35.01-.13-.03-.21-.11-.23.77.18,0,.72,0,1.19Zm.44-.24c-.09-.3-.01-.75.33-.84-.4-.26-.06-.24-.56-.48.04-.34.71-.04.56-.6.7.04.84.25,1.69.36.1.5-.64.12-.55.6-.92-.13-1,.63-1.47.95Z"/><path class="cls-21" d="m70.31,26.85c.19.04.21-.1.23-.24.3.65-.46-.02-.67.24.01.14.2.09.33.12-.19.15-.61.31-.79.12.11.36.44.41.56.48-.63.61-.12.45.23.67l.42-.46c-.12.02-.26.05-.42.02.01-.14-.03-.21-.11-.24.04-.64.96.21.91-.36.04.01.06.05.1.08l.27-.29c-.24-.02-.51-.07-.61-.14.11-.4.25-.11.46,0,.11-.57-.4-.46-.22-1.08-.05.75-.61.29-.68,1.08Z"/><path class="cls-21" d="m112.36,33.85l-.05.06s.03,0,.05-.01c0-.02,0-.03,0-.04Z"/><path class="cls-21" d="m64.69,33.42c.03.18.17.26.2.45l.23-.24c-.14-.31-.5-.39-.55-.81-.24.18-.36.48-.79.48.09.27.64.05.9.12Z"/><path class="cls-21" d="m60.76,21.94c.36,0,.57.29.79-.12-.27-.1-.54-.1-.79.12Z"/><path class="cls-21" d="m97.4,34.85c.08-.03.07-.06.04-.13l-.09.09s.04.04.05.04Z"/><path class="cls-21" d="m97.95,20.78h-.51c.19.2.35.17.51,0Z"/><path class="cls-21" d="m104.27,20.78s-.08.05-.12.08c-.05-.03-.07-.06-.09-.08h-5.55c-.19.17-.23.45-.43.68-.45.07-.69-.6-1.12-.12-.21-.13.39-.29.44-.56h-.93l-1.54,1.64h0c.16.15.11.52.11.83-.41.17-.71.2-.68.6-.33,0-.56-.02-.73-.06l-19.03,20.24h8.92l12.47-13.26c-.24-.03-.04-.55-.28-.59.02-.27.29.15.57,0,.07.33-.21.27-.22.52l1.36-1.45s0-.03-.01-.03c-.02-.1.04-.11.1-.12.04.01.05,0,.07-.01l.04-.05s0-.03,0-.06c0,.01.02.01.03.02l1.98-2.11c-.17-.06-.37-.19-.55-.18.17-.29.43-.02.71.02l.42-.45c-.09.07-.46.06-.45.2-.08-.28-.48-.21-.69-.36-.27.17-.19.41-.11.73-.2.01-.23-.15-.45-.13,0-.88.77-.94,1.24-1.31-.32-.61-2.04-.94-1.8.12-.29,0-.35.22-.56,0,.43-.66-.21-.06-.12-.83.31.28.83.19.79-.24.6-.12,1.07,0,1.35.48.32.08.23-.24.46-.24-.06-.18-.15.05-.34,0,.17-.25.56-.66.89-.36-.3.41-.13.78-.67.6.14.41.79.47.67.83-.09.43-.27.02-.67.12.11.03.3.53.34.23.11.07.13.11.13.14l.6-.64s-.05-.05-.06-.09c.13-.11.28-.2.43-.29l3.32-3.53c-.06,0-.11,0-.15,0-.16-.08-.02-.46-.23-.48.12-.39.62-.38,1.12-.36.01.01,0,.02,0,.04l.12-.12h-1.12Zm-10.35,4.39c.19-.05.21.09.22.24.61.1.7-.88,1.24-.48-.1.54-.59.56-.57.96-.26-.03-.26-.32-.11-.48-.18.17-.9.24-.78-.24Zm0,2.39h-.56c.32-.33.08-.3,0-.71.51-.05,1.11-.16,1.34.36-.55-.16-.78-.07-.78.36Zm.56,3.23c-.05-.54.07-.9.57-.84-.4.06-.01.94-.57.84Zm.79-4.67c-.31-.22.02-.76.12-.95.31.21-.4.5.11.71-.04.13-.22.08-.23.23Zm3.94-.71c-.27.71-.67-.05-1.13-.12.15-.19.89,0,1.13.12Zm-3.37.48c.09-.24.39-.43.57-.24v-.24c.12-.32.14.47.22.6-.33.16-.57.13-.79-.12Zm2.02.12c-.02.34-.21.5-.23.84-.41-.18-.41-.28-.79,0,.2-.36-.03-.61.12-.84h.9Zm1.23-2.87c-.08.42-.51-.36-.55,0-.21-.19.04-.32.12-.71.26,0,.32.2.67.12.3.54-.83.48-.23.59Zm1.8-.71c.07-.09.12-.2.11-.36.33.11.35.11.67,0-.12.27-.45.68-.79.36Z"/><path class="cls-21" d="m113.47,41.79c0-.48.44-.55.63-.27l.77-.82c-.17.04-.37.06-.37.27-.34-.49.78-.45.78-.96-.05-.15-.14-.25-.35-.24.28-.24.4.06.65.17l1.81-1.92c-.1-.16-.14-.36.02-.51.17-.04.28.04.31.16l6.04-6.41c-.13-.1-.22-.25-.28-.33-.2.08-.47.07-.57.24-.3-.18-.43-.56-1-.48-.11-.36.25-.21.45-.24,0-.32-.25-.57-.45-.36-.15.08.06.32-.11.6-.29-.21-.34.05-.68-.12-.06-.47.46-.31.56-.6-.14-.37-.51.22-.67-.12.76-.65,2-.48,2.93-.12-.16.17-.51.32-.68.12-.31-.05-.1.44-.35.48.38.36.72.03,1.13.36.17-.19.38-.34.64-.43l8.89-9.46h-6.41c.08.27-.19.81-.43.8.01.29.21.37,0,.6.25.61,1-.52,1.01.48-1.39-.08-2.82-.25-4.55-.33l-.73.79c.26-.04.44-.04.8-.1-.01.39-.51.25-.79.36.04.23.24.29.22.6-.19-.06-.38-.34-.58-.49l-1.77,1.88c.36,0,.73-.02.89-.43.48.59-.75.39-.45,1.19-.7-.73-.87.6-1.35.36.03-.33.36-.34.46-.6-.01-.01-.01-.02-.01-.02l-.92.98s.01,0,.03,0c.05.37-.3.31-.33.6.1.33.25-.37.45,0-.14.28-.52.24-.87.18l-1.96,2.08s.02.07.02.13c-.04-.02-.07-.02-.12-.04l-.89.96c.46-.36,1.27-.07,1.57-.56.16.61-1.26.57-1.8.84.02-.06.07-.09.09-.13l-1.53,1.63c.21,0,.5.18.65.3-.07.13-.26.13-.22.36-.32-.2-.66-.05-1.12.12,0-.02,0-.03,0-.04l-.03.03c.07.17.04.34.14.48-.33.26-.6.33-.56.72-.32.1-.3-.17-.57-.13-.16.06.05.16,0,.36-.07.17-.42.03-.44.24-.04-.01-.06-.05-.08-.06l-.77.81c.19,0,.41,0,.62-.15.17.54-.44.6-.12.96-.1.07-.19-.13-.67,0,.14-.29.05-.4-.18-.44l-7.48,7.96h8.92l2.11-2.24c-.09-.03-.18-.06-.35-.02Zm14.17-16.97c.19-.04.21.09.22.23,1.06-.12-.53.64-.22-.23Zm1.12-.25c-.04-.31.15-.38.44-.35.04.31-.16.39-.44.35Zm2.69-3.7c.23.07.78-.19.67.24-.41-.26-.41.15-.77.24-.02-.22.12-.25.11-.48Zm-4.28,1.07c.56-.32,1.19-.58,1.81-.84.25.05-.07.7.44.48-.02.35-.59.59-.55,0-.01.47-.37.45-.22.96-.43-.27-.92-.46-1.48-.6Zm-2.7,1.91c.37-.15.09.39.46.24.1-.33.42-.43.56-.72.26-.04.12.34.34.36-.18.17-.3.39-.56.48.35.63.79-.34,1.24-.36.08.11.12.27.11.48,1.06.2.96-1.44,1.8-1.08.14-.02.1-.21.11-.36.67.45.74-.2,1.46,0-.15-.32-.5-.35-.79-.24.46-.23.72-.67,1.24-.83-.19.4-.08.67.22.83-.22.76-.74,1.2-1.46,1.44-.07-.25-.22-.41-.44-.48-.3.49-1.33.38-1.12,1.07-.35.02-.69,0-.79-.24-.23.07-.38.23-.45.48-.48-.38-1.05-.08-1.58-.24-.1-.24-.14-.57-.45-.6-.26.1.25.66-.34.6-.18-.26.22-.66.45-.84Zm-1.57,3.11c.2-.12.09-.55.35-.6.25.2.61.31,1.12.24.15-.04.09-.3.11-.48.5-.03,1.48-.55,1.92.36-.39.1-.52-.02-1.01.12.12.34.57.41,0,.6.13.34.23.71.68.71-.08.38-1.19-.12-.57-.12-.51-.14-.81.97-1.24,1.31-.33-.02-1.36-.09-1.79.12-.01-.53.79-.54,1.23-.59-.32-.07-.35-.43-.45-.72-.18.32-.6.48-1.02.24.06-.81.23-.51-.11-1.07.23,0,.74-.68.77-.12Zm-.56-2.99c.18.36-.69.2-.22.47-.04.31-.2-.16-.45,0,.21-.18.3-.48.67-.47Zm-.67.59c.04.28.49.12.45.48-.11.02-.11-.04-.12-.12-.18,0-.28.09-.33.24-.3-.2-.16-.39,0-.61Zm.45,3.11c-.11.21-.46.15-.34.6-.29.04-.48-.04-.44-.36.46.14.43-.25.79-.24Zm-7.09,10.76c.34-.15.52-.06.56.36-.18.21-.66.1-.56-.36Zm1.92-4.42c-.12-.1-.3-.16-.56-.12-.04.2.09.22.22.24-.5.38-.72-.19-.79.12-.64-.22,1.29-1.25,1.13-.23Zm-1.8-.96c.11-.51.44-.23.9-.48v.36c-.4-.03-.55.27-.9.12Zm2.02,1.55c.04-.28.39-.22.34-.59.19-.03.2.11.34.12-.01.38-.26.52-.68.48Zm3.83-7.77c-.08.43-.66.19-.79,0,.18-.11.54-.11.79,0Zm-.68,5.26c-.53-.15-1.27.5-1.35-.24.48.35,1.23-.74,1.35.24Zm-.45-3.95c-.33.62-.66.73-1.35.72-.07-1.02,1.01-.33,1.35-.72Zm-1.46,1.44h.44c.12.49-.13.59-.33.72.18.31.74,0,.78-.24.04.28.49.12.46.48-.23-.12-.82.19-1.13.35-.48-.17-.06-.74-.44-.83.04-.19.35-.1.23-.48Zm-.8,3.47c-.1-.07-.2-.15-.23,0-.24-.03-.11-.45-.34-.48.05-.19.2.1.23-.12.27.53.39-.1.78-.11.19.6-.48.27-.45.71Zm-.23-3.83c.28.13-.21.54.33.48-.14.24-.68.07-.9.24-.12-.58.53-.32.57-.72Zm-.68,1.44c.27.03.42.19.79.12-.01.63-.95.6-.68,1.19-.31-.1-.28.17-.56.12.12-.36-.25-.21-.45-.24.05-.67.68-.71.9-1.2Zm-1.69.72h.34c-.17.31-.12.37.22.24.02.1-.05.11-.1.12,0,.12.13.09.21.12-.14.36-.37-.13-.67,0v-.48Zm-.34,5.98c.03-.14.12-.07.12,0,.24-.05.36-.26.56-.36.34.45-.3.87-.68.95-.15-.29.25-.58,0-.59Zm-.67,2.27c-.28.02-.34-.18-.57-.24.05-.27.63.01.57-.36.39.09.12.41,0,.59Zm-2.48,0c.02-.26.29-.26.57-.24.02.35-.46.36-.57.24Zm.45,1.08c-.32-.16.1-.53.12-.71.46.14-.09.41-.12.71Zm-.56-3.1c.03-.63.76-.47,1.01-.12.56.04.39-.7.9-.72-.06-.17-.16-.3-.23-.48-1-.1.35-.26.57-.23.02.49-.13,1.17.45,1.08-.09.18-.29.26-.57.24-.01.25.4.04.57.12-.43.84-1.17.65-1.46,1.68-.32-.27-.03-.91.22-.96-.56-.13-.69-.7-1.46-.59Zm1.58,1.56c.05-.1.11-.2.1-.37.41-.02.41.61,0,.6.13-.15.1-.24-.1-.23Zm-.34.71c0-.24.3-.15.22-.47.21.05.29.26.55.24-.06.3-.65.37-.78.24Z"/><path class="cls-21" d="m62.68,21.22h-.46c-.01.18.05.29.13.37l.33-.34v-.03Z"/><path class="cls-21" d="m70.31,33.66s-.01-.02-.01-.03l-.02.03s.02.01.03,0Z"/><polygon class="cls-21" points="139.89 44.04 140.36 43.54 140.36 34.05 130.96 44.04 139.89 44.04"/><path class="cls-21" d="m63.46,31.63c.12.16.73.41.9.12.28.02.04.4,0,.48.2,0,.29-.09.34-.24.12.18.29.34.45.48.37-.22.73-.3,1.01-.36.04.09.12.17.18.25l3.41-3.64c.01-.06.01-.12.01-.2-.42,0-.28.58-.79.48.21-.22.01-.3,0-.6.6.13-.01-.29.45-.24,0-.37-.35-.34-.23-.84-.2.1-.21.42-.34.6-.16-.03-.09-.3-.11-.48.41-.27.74-.07.78-.84.53.34.44-.51.79-.72-.36-.29-.83.32-1.02.6-.33-.08.11-.26,0-.48-.41-.13-.32.3-.67.24.21-.42-.08-.7-.45-.83-.15.56-.87.51-.89,1.19-.39.08-.19-.24-.12-.36-.26.6-1.12.2-1.23.72-.16-.04-.18-.21-.34-.24-.23.04-.1.45-.34.48.1.35.17-.28.46-.12.11.63-.02.63-.23,1.07.13.07.35.12.67.24-.36.3-.23.57-.33.96.5.17.49.88,1.12.6.03.27-.04.45-.23.48.14.17.43.18.57.36-.42.44-.87.17-.91,1.07-.32-.56-.4.28-1.24.12-.17-.43.38-.07.33-.36-.03-.25-.53-.03-.44.24-.27-.47-.52-.33-1.14-.24.08-.24.4-.51,0-.6-.01.17-.09.48-.44.6Zm3.04-2.03c-.02-.3-.02-.58.11-.72.34.19.19.37.34.59-.05.16-.29.1-.45.12Zm.22-1.44h-.34c.11-.31.18-.68.57-.71-.05.42-.5.24-.23.71Zm1.35.6c.16.07.58-.14.55.13.13.41-.82.35-.55-.13Zm-1.02,1.44c.33-.53.67-.42,1.24-.24-.13.18-.33.29-.45.48-.45-.15-.34-.19-.79-.24Z"/><path class="cls-21" d="m58.06,21.1c-.39.1-.44-.18-.79-.12.02.35.83.43.79.12Z"/><path class="cls-21" d="m61.43,22.42c-.65-.27-.98.23-1.24.71.21.09.4.12.62.09l.62-.66v-.15Z"/><path class="cls-21" d="m63.69,25.77c.38.05.47-.2.67-.36-.2.06-.26-.02-.35-.07l-.33.34s0,.05.01.09Z"/><path class="cls-21" d="m64.35,29.35c.15,0,.1.21.22.24.16-.61-.56-.28-.89-.37-.08.7.49.2.67.12Z"/><path class="cls-21" d="m67.73,25.41c-.36-.19-.5-.18-.78-.24.01.34.2.49.22.83-.11-.01-.29.06-.11.12.16-.04.2-.14.34,0-.25-.46.04-.54.34-.71Z"/><path class="cls-21" d="m139.44,24.1c-.15.15-.02.24,0,.6-.24.05-.49.15-.78,0-.13.02-.1.21-.11.35.65.02.68.7,1.23.84-.09.25-.33.37-.67.36-.06-.51-.4-.77-1-.72.11-.52-.17-.29.1-.83-.48-.08-.3.55-.34.96-.44-.25-.88-.04-1.01.36-.27-.35-.26-.88.11-1.07-.09-.2-.54.22-.45.6-.62-.38-.16.51-.56.59.32-.07.73.39,1.23.48-.1.22-.45.16-.33.6-.48-.1-.86-.28-1.24-.48-.11.12-.23.24-.34.36.37.13.51.5.8.71.15.6-.76.08-.57.72-.36-.1-.54-.38-.9-.48,0-.19.06-.46-.12-.48.02-.3.44-.17.46-.48-.09-.35-.53-.31-.79-.48.78-.04.77-.71,1.57-.95-.16-.32-.75.26-1.01-.12.15-.48.71-.52,1.12-.71.04-.32-.44-.1-.33-.48.62.15.74-.25,1.01-.48.57.3.3.26,1.13.36.36-.28-.11-.68-.12-.96-.74.08-1.1.43-1.62.55l-6.92,7.36v.22h-.22l-11.89,12.66h8.92l14.56-15.49v-4.44c-.32.04-.61.02-.93-.02Zm-17.76,18.17c.2-.19.6-.16.89-.24-.08.31-.63.49-.89.24Zm.89.37h.56c.05.4-.64.5-.56,0Zm9.23-13.99c.26.03.21.41.56.35-.13.39-.65.42-1.01.24,0-.34.33-.34.45-.59Zm-2.81,6.81c-.25.02-1.34-.08-1.47-.6.13-.2,1.64-.62,1.8,0-.35-.05-.4.22-.79.12.21.11.36.26.46.48Zm1.46-1.55v-.24h.56c.11.41-.35.19-.56.24Zm1.12-2.15c0-.11.04-.12.11-.12-.03-.15-.23-.12-.23,0-.34-.17.14-.48.45-.36-.18.09.03.58-.33.48Zm.55,1.68c0-.5.43-.51.34-1.08.27.08.31.39.57.47-.4.28-.57.16-.9.6Zm.9-.36c.32-.1.3.17.57.12-.06.22-.72.47-.57-.12Zm2.24-.48c-.04-.28.21-.26.12-.6.42-.09.24.78-.12.6Zm-3.37-.96c.04-.28.3-.28.45-.12.13-.64,0-.64-.23-1.08.5-.14.82-.38,1.13.12.05.25-.16.22-.34.24.06.14.15.24.34.24.04-.15.13-.35.34-.6.46.3,1.09-.12,1.01-.48h.45c.16.43.27.9.67,1.08-1.04.9-2.71.49-3.82.6Zm7.42-6.22c.01-.23.37-.09.35-.36.1.13.4.04.33.36-.2-.23-.28.1-.68,0Z"/><path class="cls-21" d="m137.19,22.78c.31-.02.28.34.46.48.64-.15,1.33.19,1.68-.24.27.2.66.28,1.04.34v-.77c-.07,0-.14,0-.25-.05.04-.27.14-.49.25-.68v-.55s-.02.02-.02.03c-.29-.05-.37-.29-.39-.56h-1.21l-2.51,2.67s.04.03.06.05c.32-.22.58-.51.9-.72Z"/><path class="cls-21" d="m140.36,20.95v-.17h-.04c-.02.09,0,.14.04.17Z"/><path class="cls-21" d="m78.48,40.23s-.01-.04-.01-.06l-.08.08s.06-.01.1-.02Z"/><path class="cls-21" d="m125.72,20.87c-.03.37-.78.3-.78-.08h-.3l-.68.72s.04-.03.07-.05c.53.22,1.88.27,2.48,0-.04-.16-.29-.1-.45-.12.24-.42.62.05,1.01-.36-.04-.06-.07-.12-.09-.2h-1.36s.08.05.09.08Z"/><path class="cls-21" d="m73.53,31.75c-.24-.2-.15.01-.45,0-.12-.45.37-.24.45-.48.27.02.03.4,0,.48Zm.78-.6c.34-.1.69.38.79.12.4.5-.72.25-.79-.12Zm1.69-.83c-.28.02-.36-.19-.57-.24.12-.44.56.02.68-.24.27.03-.13.32-.11.48Zm.45-.72v-.24h.78c.1.46-.52.15-.78.24Zm3.59-.12c.14-.35.91-.48,1.24-.24-.29.46-.67.07-1.24.24Zm.91.84c.02-.37.55-.2.45-.72.12.27.35.42.34.84-.3,0-.65.04-.79-.12Zm.55.59c.02-.25.29-.25.56-.23.02.35-.46.36-.56.23Zm-.11-1.67c.24-.07.37-.15.67,0,.07.28-.78.44-.67,0Zm-.22-.84c.23-.44.05-.62.32-1.07.25-.02.06.42.12.6.23-.2.15,0,.45,0-.11-.12-.22-.24-.33-.36-.08-.33.53.09.44-.24.29.22-.1.42.12.72-.34.15-.51.49-1.12.35Zm2.58-.83c-.04-.38.49-.44.67-.24-.11.2-.48.13-.67.24Z"/><path class="cls-21" d="m58.96,23.38c.38.1.1.26,0,.48-.2.01-.24-.15-.45-.12.03-.25.42-.11.45-.36Zm-.45.6h.57c.08.44-.18.53-.57.47v-.47Zm-1.58-.12h.34c-.17.34.17.55-.34.6-.07-.37-.07-.23,0-.6Zm.57,2.27h-.44c-.09-.46.53-.46.44,0Z"/><path class="cls-21" d="m69.48,43.98l.59-.63c-.43.02-.6.28-.59.63Z"/><path class="cls-21" d="m59.97,33.06c-.37-.25.62-.89,0-1.08.17-.34.73-.41.89-.12-.55.13-.58.81-.89,1.2Z"/><path class="cls-21" d="m67.95,43.34c-.66-.06-.39-.19-1.12-.12-.27-.72.08-.67-.23-1.19.27.24.71-.13,1.01-.24-.05-.18-.15.05-.33,0-.01-.37.4-.29.33-.71.25.13,0,.79.33.83-.02.34-.53.15-.45.6.32-.12.39-.08,1.02-.12.02.21-.13.26-.12.48.4-.02.53-.31.9-.36-.7-.31.03-1.12-.22-1.67-.37-.16-.09.39-.46.24.04-.28-.02-.45-.23-.48.32-.22.75-.33,1.13-.48.15.45.14,1.04.56,1.19.31-.36.49-.79.23-1.19.47-.25.52.15.9,0,.11-.09-.04-.42.22-.6-.52.09-.83.38-1.35.48.07-.3-.43-.28-.79-.13-.29-.24.04-.6-.33-.59.18-1.31-.05-2.06.79-3.11.29,0,.66.07.67-.24.36.44-.65.42-.34,1.2-.19,0-.3.09-.34.24-.11,0-.09-.15-.11-.24-.4.27.07.81-.34,1.32.13.47.34-.03.67,0,.09.32-.22.24-.22.47.12.2.52.09.56.36.55-.22-.33-1.02.57-1.08.01.37-.06.66-.23.84.03.1.12.12.11.24.42.13.33-.3.68-.24.13.37.23.79.34,1.19-.39.24-.56.6-1.13.36.07.26.22.68-.12.71.21.07.42.52.48.12.26-.05-.07.55.33.36,0,.13-.02.2-.03.27l20-21.27h-8.93l-.17.18c.15,0,.32.02.48.02-.34.23-.24.46-.34.72-.29-.07-.49-.14-.68-.16l-9.89,10.51c.03.22.16.35.45.3-.11.46-.45.08-.83.11l-.07.07c0,.3.46.11.35.53-.21.02-.25-.15-.45-.12-.06.29.2.26.11.6-.42.23-.75.55-1.01.96.02.13.23.08.23.23-.14.39-.16.26-.23.6-.3-.3.23-.86-.34-.96-.15.04-.09.31-.1.48-.1-.06-.18-.13-.34-.12.02-.13.04-.23.05-.33l-2.43,2.58c.33,0,.6.06.8.39-.41-.23-.62.08-1-.12-.15.38.36.09.22.48-.16-.09-.32-.17-.48-.26l-2.73,2.91c0,.19.04.41-.27.46.14.28.57.66.21,1.07-.4.03-.85-.09-1.19-.21l-.5.52c.06.02.11.02.12-.07.26.12.09.8-.23.72v-.53l-1.61,1.71h7.39c0-.21.01-.44.07-.7Zm13.37-20.44c.02-.26.47-.05.69-.12.08-.37-.32-.23-.24-.6.2-.01.24.15.45.12-.12.67-.41,1.36-1.12,1.08-.15-.34.59-.3.22-.48Zm-.45,3.47c.25.05.09.64,0,.72-.3.09.08-.57-.22-.48.02-.13.22-.08.22-.24Zm-1,.24c.26-.04.12.35.34.36-.08.24-.3.32-.56.36.1-.22.32-.3.23-.72Zm-8.32,6.82c.2.03.26.2.22.48-.21-.02-.23.14-.45.12-.1-.38.18-.37.22-.6Zm-2.13,1.43c.19.03.26.2.23.48-.29.02-.36-.19-.56-.24.02-.16.33-.04.33-.24Zm-1.8,4.06c-.21-.23-.01-.3,0-.6.34.04.53-.28.78,0-.13.31-.24.36-.11.72-.23.07-.31.29-.67.24.18.89.15,1.92-.57,1.8.32-.2.14-.31-.22-.36.03-.21.19-.27.45-.24.06-.38-.41-.17-.12-.47-.2-.02-.23.15-.45.12.23-.46.19-1.23.9-1.2Z"/><path class="cls-21" d="m118.65,27.32s-.04-.05-.07-.07l-.07.07s.09,0,.14,0Z"/><g class="cls-8"><polygon class="cls-7" points="24.51 73.29 25.05 73.83 24.98 82.74 24.44 82.19 24.51 73.29"/><polygon class="cls-15" points="40.48 73.29 41.02 73.83 25.05 73.83 24.51 73.29 40.48 73.29"/><polygon class="cls-23" points="23.53 72.3 24.51 73.29 24.44 82.19 23.45 82.93 23.53 72.3"/><polygon class="cls-11" points="48.12 65.96 48.67 66.51 54.58 72.46 54.04 71.92 48.12 65.96"/><polygon class="cls-15" points="36.93 89.68 37.47 90.22 24.93 90.22 24.39 89.68 36.93 89.68"/><polygon class="cls-15" points="24.29 102.33 24.83 102.87 12.97 102.87 12.43 102.33 24.29 102.33"/><polygon class="cls-7" points="24.39 89.68 24.93 90.22 24.83 102.87 24.29 102.33 24.39 89.68"/><polygon class="cls-24" points="40.72 72.3 40.48 73.29 24.51 73.29 23.53 72.3 40.72 72.3"/><polygon class="cls-2" points="13.43 66.69 12.71 65.96 48.12 65.96 47.64 66.69 13.43 66.69"/><polygon class="cls-14" points="13.17 101.35 12.43 102.33 12.71 65.96 13.43 66.69 13.17 101.35"/><polygon class="cls-14" points="42.89 74.49 42.15 74.97 40.48 73.29 40.72 72.3 42.89 74.49"/><polygon class="cls-14" points="53.96 81.93 54.5 82.47 48.76 88.17 48.22 87.62 53.96 81.93"/><polygon class="cls-7" points="54.04 71.92 54.58 72.46 54.5 82.47 53.96 81.93 54.04 71.92"/><polygon class="cls-2" points="23.45 82.93 24.44 82.19 40.41 82.19 40.64 82.93 23.45 82.93"/><polygon class="cls-20" points="40.64 82.93 40.41 82.19 42.11 80.51 42.84 80.74 40.64 82.93"/><polygon class="cls-14" points="42.84 80.74 42.11 80.51 42.15 74.97 42.89 74.49 42.84 80.74"/><polygon class="cls-23" points="23.41 88.69 24.39 89.68 24.29 102.33 23.31 101.35 23.41 88.69"/><polygon class="cls-24" points="23.31 101.35 24.29 102.33 12.43 102.33 13.17 101.35 23.31 101.35"/><polygon class="cls-6" points="47.64 66.69 48.12 65.96 54.04 71.92 53.05 72.15 47.64 66.69"/><polygon class="cls-24" points="37.37 88.69 36.93 89.68 24.39 89.68 23.41 88.69 37.37 88.69"/><polygon class="cls-23" points="53.05 72.15 54.04 71.92 53.96 81.93 52.98 81.45 53.05 72.15"/><polygon class="cls-1" points="52.98 81.45 53.96 81.93 48.22 87.62 47.07 87.31 52.98 81.45"/><polygon class="cls-15" points="54.86 102.33 55.4 102.87 42.96 102.87 42.42 102.33 54.86 102.33"/><polygon class="cls-17" points="48.22 87.62 48.76 88.17 55.4 102.87 54.86 102.33 48.22 87.62"/><polygon class="cls-14" points="42.86 101.35 42.42 102.33 36.93 89.68 37.37 88.69 42.86 101.35"/><path class="cls-10" d="m47.07,87.31l6.33,14.03h-10.54s-5.49-12.65-5.49-12.65h-13.96s-.1,12.65-.1,12.65h-10.14s.26-34.65.26-34.65h34.2s5.41,5.45,5.41,5.45l-.07,9.3-5.91,5.86Zm-4.23-6.58l.05-6.25-2.17-2.19h-17.18s-.08,10.62-.08,10.62h17.18s2.21-2.19,2.21-2.19"/><polygon class="cls-24" points="53.4 101.35 54.86 102.33 42.42 102.33 42.86 101.35 53.4 101.35"/><polygon class="cls-25" points="47.07 87.31 48.22 87.62 54.86 102.33 53.4 101.35 47.07 87.31"/></g><g class="cls-8"><polygon class="cls-7" points="72.79 73.66 73.33 74.2 73.28 80.58 72.74 80.03 72.79 73.66"/><polygon class="cls-7" points="72.68 87.73 73.22 88.27 73.17 95.18 72.63 94.63 72.68 87.73"/><polygon class="cls-23" points="71.81 72.67 72.79 73.66 72.74 80.03 71.75 80.77 71.81 72.67"/><polygon class="cls-15" points="95.56 73.66 96.1 74.2 73.33 74.2 72.79 73.66 95.56 73.66"/><polygon class="cls-7" points="95.62 65.96 96.16 66.51 96.1 74.2 95.56 73.66 95.62 65.96"/><polygon class="cls-2" points="61.71 66.69 60.99 65.96 95.62 65.96 94.63 66.69 61.71 66.69"/><polygon class="cls-14" points="61.45 101.35 60.71 102.33 60.99 65.96 61.71 66.69 61.45 101.35"/><polygon class="cls-15" points="93.24 87.73 93.78 88.27 73.22 88.27 72.68 87.73 93.24 87.73"/><polygon class="cls-7" points="93.29 80.03 93.84 80.58 93.78 88.27 93.24 87.73 93.29 80.03"/><polygon class="cls-23" points="71.71 86.75 72.68 87.73 72.63 94.63 71.64 95.37 71.71 86.75"/><polygon class="cls-23" points="94.63 66.69 95.62 65.96 95.56 73.66 94.58 72.67 94.63 66.69"/><polygon class="cls-24" points="94.58 72.67 95.56 73.66 72.79 73.66 71.81 72.67 94.58 72.67"/><polygon class="cls-2" points="71.75 80.77 72.74 80.03 93.29 80.03 92.31 80.77 71.75 80.77"/><polygon class="cls-23" points="92.31 80.77 93.29 80.03 93.24 87.73 92.26 86.75 92.31 80.77"/><polygon class="cls-24" points="92.26 86.75 93.24 87.73 72.68 87.73 71.71 86.75 92.26 86.75"/><polygon class="cls-15" points="95.44 102.33 95.99 102.87 61.25 102.87 60.71 102.33 95.44 102.33"/><polygon class="cls-7" points="95.5 94.63 96.04 95.18 95.99 102.87 95.44 102.33 95.5 94.63"/><polygon class="cls-2" points="71.64 95.37 72.63 94.63 95.5 94.63 94.51 95.37 71.64 95.37"/><polygon class="cls-24" points="94.47 101.35 95.44 102.33 60.71 102.33 61.45 101.35 94.47 101.35"/><polygon class="cls-23" points="94.51 95.37 95.5 94.63 95.44 102.33 94.47 101.35 94.51 95.37"/><polygon class="cls-3" points="94.63 66.69 94.58 72.67 71.81 72.67 71.75 80.77 92.31 80.77 92.26 86.75 71.71 86.75 71.64 95.37 94.51 95.37 94.47 101.35 61.45 101.35 61.71 66.69 94.63 66.69"/></g><g class="cls-8"><polygon class="cls-2" points="101.55 66.69 100.61 65.96 112.05 65.96 111.21 66.69 101.55 66.69"/><polygon class="cls-19" points="112.05 65.96 112.59 66.51 117.55 93.6 117.01 93.05 112.05 65.96"/><polygon class="cls-2" points="124.4 66.69 123.85 65.96 139.45 65.96 138.65 66.69 124.4 66.69"/><polygon class="cls-15" points="124.26 102.33 124.8 102.87 109.05 102.87 108.5 102.33 124.26 102.33"/><polygon class="cls-20" points="131.06 74.92 131.6 75.46 124.8 102.87 124.26 102.33 131.06 74.92"/><polygon class="cls-14" points="109.07 101.35 108.5 102.33 100.61 65.96 101.55 66.69 109.07 101.35"/><polygon class="cls-28" points="116.75 96.96 117.01 93.05 123.85 65.96 124.4 66.69 116.75 96.96"/><polygon class="cls-26" points="111.21 66.69 112.05 65.96 117.01 93.05 116.75 96.96 111.21 66.69"/><polygon class="cls-17" points="139.45 65.96 140 66.51 146.48 93.6 145.94 93.05 139.45 65.96"/><polygon class="cls-24" points="123.47 101.35 124.26 102.33 108.5 102.33 109.07 101.35 123.47 101.35"/><polygon class="cls-5" points="130.96 71.14 131.06 74.92 124.26 102.33 123.47 101.35 130.96 71.14"/><polygon class="cls-2" points="151.89 66.69 151.31 65.96 161.38 65.96 160.18 66.69 151.89 66.69"/><polygon class="cls-20" points="161.38 65.96 161.92 66.51 153.53 102.87 152.99 102.33 161.38 65.96"/><polygon class="cls-15" points="152.99 102.33 153.53 102.87 138.03 102.87 137.49 102.33 152.99 102.33"/><polygon class="cls-14" points="138.05 101.35 137.49 102.33 131.06 74.92 130.96 71.14 138.05 101.35"/><polygon class="cls-26" points="138.65 66.69 139.45 65.96 145.94 93.05 145.9 96.94 138.65 66.69"/><polygon class="cls-16" points="145.9 96.94 145.94 93.05 151.31 65.96 151.89 66.69 145.9 96.94"/><polygon class="cls-24" points="183.53 72.18 184.07 72.72 178.26 88.06 177.72 87.52 183.53 72.18"/><polygon class="cls-24" points="152.18 101.35 152.99 102.33 137.49 102.33 138.05 101.35 152.18 101.35"/><polygon class="cls-5" points="160.18 66.69 161.38 65.96 152.99 102.33 152.18 101.35 160.18 66.69"/><polygon class="cls-9" points="160.18 66.69 152.18 101.35 138.05 101.35 130.96 71.14 123.47 101.35 109.07 101.35 101.55 66.69 111.21 66.69 116.75 96.96 124.4 66.69 138.65 66.69 145.9 96.94 151.89 66.69 160.18 66.69"/><polygon class="cls-15" points="172.18 102.33 172.72 102.87 161.02 102.87 160.48 102.33 172.18 102.33"/><polygon class="cls-24" points="174.71 95.53 175.25 96.07 172.72 102.87 172.18 102.33 174.71 95.53"/><polygon class="cls-2" points="175.7 66.69 175.25 65.96 193.01 65.96 192.3 66.69 175.7 66.69"/><polygon class="cls-4" points="161.63 101.35 160.48 102.33 175.25 65.96 175.7 66.69 161.63 101.35"/><polygon class="cls-30" points="183.43 69.57 183.53 72.18 177.72 87.52 176.36 88.25 183.43 69.57"/><polygon class="cls-15" points="191.89 95.53 192.43 96.07 175.25 96.07 174.71 95.53 191.89 95.53"/><polygon class="cls-24" points="171.46 101.35 172.18 102.33 160.48 102.33 161.63 101.35 171.46 101.35"/><polygon class="cls-30" points="173.99 94.55 174.71 95.53 172.18 102.33 171.46 101.35 173.99 94.55"/><polygon class="cls-2" points="176.36 88.25 177.72 87.52 189 87.52 190.09 88.25 176.36 88.25"/><polygon class="cls-14" points="190.09 88.25 189 87.52 183.53 72.18 183.43 69.57 190.09 88.25"/><polygon class="cls-24" points="192.37 94.55 191.89 95.53 174.71 95.53 173.99 94.55 192.37 94.55"/><polygon class="cls-17" points="193.01 65.96 193.55 66.51 207.77 102.87 207.23 102.33 193.01 65.96"/><polygon class="cls-15" points="207.23 102.33 207.77 102.87 194.86 102.87 194.32 102.33 207.23 102.33"/><polygon class="cls-14" points="194.8 101.35 194.32 102.33 191.89 95.53 192.37 94.55 194.8 101.35"/><path class="cls-22" d="m192.3,66.69l13.55,34.65h-11.05s-2.43-6.8-2.43-6.8h-18.38s-2.53,6.8-2.53,6.8h-9.83s14.07-34.65,14.07-34.65h16.6Zm-15.94,21.56h13.74s-6.66-18.68-6.66-18.68l-7.08,18.68"/><polygon class="cls-24" points="205.85 101.35 207.23 102.33 194.32 102.33 194.8 101.35 205.85 101.35"/><polygon class="cls-25" points="192.3 66.69 193.01 65.96 207.23 102.33 205.85 101.35 192.3 66.69"/></g><g class="cls-8"><polygon class="cls-7" points="224.64 73.29 225.18 73.83 225.11 82.74 224.57 82.19 224.64 73.29"/><polygon class="cls-15" points="240.61 73.29 241.15 73.83 225.18 73.83 224.64 73.29 240.61 73.29"/><polygon class="cls-23" points="223.66 72.3 224.64 73.29 224.57 82.19 223.58 82.93 223.66 72.3"/><polygon class="cls-11" points="248.26 65.96 248.8 66.51 254.71 72.46 254.17 71.92 248.26 65.96"/><polygon class="cls-15" points="237.06 89.68 237.6 90.22 225.06 90.22 224.52 89.68 237.06 89.68"/><polygon class="cls-15" points="224.42 102.33 224.96 102.87 213.1 102.87 212.56 102.33 224.42 102.33"/><polygon class="cls-7" points="224.52 89.68 225.06 90.22 224.96 102.87 224.42 102.33 224.52 89.68"/><polygon class="cls-24" points="240.85 72.3 240.61 73.29 224.64 73.29 223.66 72.3 240.85 72.3"/><polygon class="cls-2" points="213.57 66.69 212.84 65.96 248.26 65.96 247.77 66.69 213.57 66.69"/><polygon class="cls-14" points="213.3 101.35 212.56 102.33 212.84 65.96 213.57 66.69 213.3 101.35"/><polygon class="cls-14" points="243.02 74.49 242.28 74.97 240.61 73.29 240.85 72.3 243.02 74.49"/><polygon class="cls-14" points="254.09 81.93 254.63 82.47 248.9 88.17 248.35 87.62 254.09 81.93"/><polygon class="cls-7" points="254.17 71.92 254.71 72.46 254.63 82.47 254.09 81.93 254.17 71.92"/><polygon class="cls-2" points="223.58 82.93 224.57 82.19 240.54 82.19 240.77 82.93 223.58 82.93"/><polygon class="cls-20" points="240.77 82.93 240.54 82.19 242.24 80.51 242.97 80.74 240.77 82.93"/><polygon class="cls-14" points="242.97 80.74 242.24 80.51 242.28 74.97 243.02 74.49 242.97 80.74"/><polygon class="cls-23" points="223.54 88.69 224.52 89.68 224.42 102.33 223.44 101.35 223.54 88.69"/><polygon class="cls-24" points="223.44 101.35 224.42 102.33 212.56 102.33 213.3 101.35 223.44 101.35"/><polygon class="cls-6" points="247.77 66.69 248.26 65.96 254.17 71.92 253.18 72.15 247.77 66.69"/><polygon class="cls-24" points="237.5 88.69 237.06 89.68 224.52 89.68 223.54 88.69 237.5 88.69"/><polygon class="cls-23" points="253.18 72.15 254.17 71.92 254.09 81.93 253.11 81.45 253.18 72.15"/><polygon class="cls-1" points="253.11 81.45 254.09 81.93 248.35 87.62 247.2 87.31 253.11 81.45"/><polygon class="cls-15" points="254.99 102.33 255.53 102.87 243.09 102.87 242.55 102.33 254.99 102.33"/><polygon class="cls-17" points="248.35 87.62 248.9 88.17 255.53 102.87 254.99 102.33 248.35 87.62"/><polygon class="cls-14" points="242.99 101.35 242.55 102.33 237.06 89.68 237.5 88.69 242.99 101.35"/><path class="cls-18" d="m247.2,87.31l6.33,14.03h-10.54s-5.49-12.65-5.49-12.65h-13.96s-.1,12.65-.1,12.65h-10.14s.26-34.65.26-34.65h34.2s5.41,5.45,5.41,5.45l-.07,9.3-5.91,5.86Zm-4.23-6.58l.05-6.25-2.17-2.19h-17.18s-.08,10.62-.08,10.62h17.18s2.21-2.19,2.21-2.19"/><polygon class="cls-24" points="253.53 101.35 254.99 102.33 242.55 102.33 242.99 101.35 253.53 101.35"/><polygon class="cls-25" points="247.2 87.31 248.35 87.62 254.99 102.33 253.53 101.35 247.2 87.31"/></g><g class="cls-8"><polygon class="cls-15" points="288.47 73.81 289.01 74.36 273.46 74.36 272.92 73.81 288.47 73.81"/><polygon class="cls-7" points="272.92 73.81 273.46 74.36 273.3 95.02 272.76 94.47 272.92 73.81"/><polygon class="cls-11" points="296.12 65.96 296.66 66.51 303.25 73.15 302.71 72.6 296.12 65.96"/><polygon class="cls-24" points="288.71 72.83 288.47 73.81 272.92 73.81 271.94 72.83 288.71 72.83"/><polygon class="cls-2" points="261.85 66.69 261.12 65.96 296.12 65.96 295.63 66.69 261.85 66.69"/><polygon class="cls-14" points="261.58 101.35 260.84 102.33 261.12 65.96 261.85 66.69 261.58 101.35"/><polygon class="cls-23" points="271.94 72.83 272.92 73.81 272.76 94.47 271.77 95.21 271.94 72.83"/><polygon class="cls-14" points="291.56 75.76 290.82 76.24 288.47 73.81 288.71 72.83 291.56 75.76"/><polygon class="cls-6" points="295.63 66.69 296.12 65.96 302.71 72.6 301.72 72.83 295.63 66.69"/><polygon class="cls-15" points="295.84 102.33 296.38 102.87 261.38 102.87 260.84 102.33 295.84 102.33"/><polygon class="cls-14" points="302.53 95.69 303.07 96.23 296.38 102.87 295.84 102.33 302.53 95.69"/><polygon class="cls-7" points="302.71 72.6 303.25 73.15 303.07 96.23 302.53 95.69 302.71 72.6"/><polygon class="cls-14" points="291.43 92.28 290.7 92.05 290.82 76.24 291.56 75.76 291.43 92.28"/><polygon class="cls-2" points="271.77 95.21 272.76 94.47 288.31 94.47 288.54 95.21 271.77 95.21"/><polygon class="cls-20" points="288.54 95.21 288.31 94.47 290.7 92.05 291.43 92.28 288.54 95.21"/><polygon class="cls-24" points="295.37 101.35 295.84 102.33 260.84 102.33 261.58 101.35 295.37 101.35"/><path class="cls-13" d="m295.63,66.69l6.09,6.14-.17,22.38-6.18,6.14h-33.78s.26-34.65.26-34.65h33.78Zm-4.2,25.58l.13-16.51-2.85-2.93h-16.77s-.17,22.38-.17,22.38h16.77s2.89-2.93,2.89-2.93"/><polygon class="cls-1" points="301.55 95.21 302.53 95.69 295.84 102.33 295.37 101.35 301.55 95.21"/><polygon class="cls-23" points="301.72 72.83 302.71 72.6 302.53 95.69 301.55 95.21 301.72 72.83"/></g><g class="cls-8"><polygon class="cls-14" points="321.92 73.5 322.46 74.04 321.51 74.99 320.97 74.45 321.92 73.5"/><polygon class="cls-20" points="309.86 72.15 309.13 71.92 315.13 65.96 315.35 66.69 309.86 72.15"/><polygon class="cls-7" points="320.97 74.45 321.51 74.99 321.47 79.79 320.93 79.24 320.97 74.45"/><polygon class="cls-11" points="320.93 79.24 321.47 79.79 322.15 80.47 321.61 79.93 320.93 79.24"/><polygon class="cls-14" points="309.78 82.5 309.04 82.98 309.13 71.92 309.86 72.15 309.78 82.5"/><polygon class="cls-1" points="321.45 72.52 321.92 73.5 320.97 74.45 319.99 73.97 321.45 72.52"/><polygon class="cls-15" points="336.99 73.5 337.54 74.04 322.46 74.04 321.92 73.5 336.99 73.5"/><polygon class="cls-15" points="338.09 74.55 338.63 75.1 337.54 74.04 336.99 73.5 338.09 74.55"/><polygon class="cls-7" points="320.68 91.31 321.22 91.86 321.2 94.23 320.66 93.68 320.68 91.31"/><polygon class="cls-23" points="319.99 73.97 320.97 74.45 320.93 79.24 319.94 79.47 319.99 73.97"/><polygon class="cls-11" points="320.66 93.68 321.2 94.23 322.25 95.28 321.7 94.74 320.66 93.68"/><polygon class="cls-14" points="314.4 87.17 314.17 88.15 309.04 82.98 309.78 82.5 314.4 87.17"/><polygon class="cls-6" points="319.94 79.47 320.93 79.24 321.61 79.93 321.12 80.66 319.94 79.47"/><polygon class="cls-11" points="344.38 65.96 344.92 66.51 350.46 72.14 349.92 71.6 344.38 65.96"/><polygon class="cls-14" points="309.52 96.21 308.78 96.69 308.82 91.31 309.55 92.04 309.52 96.21"/><polygon class="cls-15" points="337.46 88.15 338 88.69 314.71 88.69 314.17 88.15 337.46 88.15"/><polygon class="cls-24" points="337.22 72.52 336.99 73.5 321.92 73.5 321.45 72.52 337.22 72.52"/><polygon class="cls-15" points="349.88 76.98 350.42 77.52 338.62 77.52 338.07 76.98 349.88 76.98"/><polygon class="cls-7" points="349.92 71.6 350.46 72.14 350.42 77.52 349.88 76.98 349.92 71.6"/><polygon class="cls-2" points="315.35 66.69 315.13 65.96 344.38 65.96 343.89 66.69 315.35 66.69"/><polygon class="cls-2" points="309.55 92.04 308.82 91.31 320.68 91.31 319.69 92.04 309.55 92.04"/><polygon class="cls-14" points="338.83 74.06 338.09 74.55 336.99 73.5 337.22 72.52 338.83 74.06"/><polygon class="cls-23" points="319.69 92.04 320.68 91.31 320.66 93.68 319.67 93.91 319.69 92.04"/><polygon class="cls-14" points="338.81 75.99 338.07 76.98 338.09 74.55 338.83 74.06 338.81 75.99"/><polygon class="cls-14" points="314.56 101.35 314.32 102.33 308.78 96.69 309.52 96.21 314.56 101.35"/><polygon class="cls-6" points="319.67 93.91 320.66 93.68 321.7 94.74 321.22 95.47 319.67 93.91"/><polygon class="cls-11" points="344.85 79.93 345.39 80.47 350.52 85.64 349.98 85.09 344.85 79.93"/><polygon class="cls-6" points="343.89 66.69 344.38 65.96 349.92 71.6 348.94 71.83 343.89 66.69"/><polygon class="cls-23" points="348.94 71.83 349.92 71.6 349.88 76.98 348.9 75.99 348.94 71.83"/><polygon class="cls-24" points="348.9 75.99 349.88 76.98 338.07 76.98 338.81 75.99 348.9 75.99"/><polygon class="cls-24" points="337.7 87.17 337.46 88.15 314.17 88.15 314.4 87.17 337.7 87.17"/><polygon class="cls-2" points="321.12 80.66 321.61 79.93 344.85 79.93 344.37 80.66 321.12 80.66"/><polygon class="cls-14" points="338.88 88.35 338.14 88.84 337.46 88.15 337.7 87.17 338.88 88.35"/><polygon class="cls-15" points="343.89 102.33 344.43 102.87 314.86 102.87 314.32 102.33 343.89 102.33"/><polygon class="cls-7" points="349.98 85.09 350.52 85.64 350.43 96.92 349.89 96.37 349.98 85.09"/><polygon class="cls-14" points="349.89 96.37 350.43 96.92 344.43 102.87 343.89 102.33 349.89 96.37"/><polygon class="cls-2" points="321.22 95.47 321.7 94.74 337.15 94.74 337.37 95.47 321.22 95.47"/><polygon class="cls-20" points="337.37 95.47 337.15 94.74 338.11 93.79 338.84 94.02 337.37 95.47"/><polygon class="cls-14" points="338.84 94.02 338.11 93.79 338.14 88.84 338.88 88.35 338.84 94.02"/><polygon class="cls-6" points="344.37 80.66 344.85 79.93 349.98 85.09 348.99 85.32 344.37 80.66"/><polygon class="cls-24" points="343.42 101.35 343.89 102.33 314.32 102.33 314.56 101.35 343.42 101.35"/><polygon class="cls-23" points="348.99 85.32 349.98 85.09 349.89 96.37 348.91 95.89 348.99 85.32"/><polygon class="cls-1" points="348.91 95.89 349.89 96.37 343.89 102.33 343.42 101.35 348.91 95.89"/><polygon class="cls-29" points="343.89 66.69 348.94 71.83 348.9 75.99 338.81 75.99 338.83 74.06 337.22 72.52 321.45 72.52 319.99 73.97 319.94 79.47 321.12 80.66 344.37 80.66 348.99 85.32 348.91 95.89 343.42 101.35 314.56 101.35 309.52 96.21 309.55 92.04 319.69 92.04 319.67 93.91 321.22 95.47 337.37 95.47 338.84 94.02 338.88 88.35 337.7 87.17 314.4 87.17 309.78 82.5 309.86 72.15 315.35 66.69 343.89 66.69"/></g></svg>