<?xml version="1.0" encoding="UTF-8"?><svg id="Layer_1" xmlns="http://www.w3.org/2000/svg" viewBox="0 0 176.02 156.83"><defs><style>.cls-1{fill:none;stroke:#fdd10d;stroke-miterlimit:10;stroke-width:3px;}</style></defs><path class="cls-1" d="m30.78,59.34c5.88.48,11.16,1.92,15,4.92,3.84,3,6.24,7.44,6.24,13.92v13.44h-19.92v-12.12c0-5.04-2.04-6.48-5.4-6.48s-5.28,1.44-5.28,6.48c0,13.08,30.6,19.8,30.6,45.6,0,18-13.08,22.2-21.24,23.04v7.2h-9v-7.2c-5.76-.36-10.8-2.16-14.4-5.4-3.72-3.12-5.88-7.8-5.88-13.92v-15.6h19.92v14.76c0,5.04,1.92,6.48,5.28,6.48s5.4-1.44,5.4-6.48c0-18.96-30.6-21.24-30.6-47.28,0-13.56,7.8-19.8,20.28-21.36v-5.88h9v5.88Z"/><path class="cls-1" d="m69.3,37.44h-15.97v-17.17c12.18-.4,18.57-4.79,21.76-15.97h22.36v142.16h-28.15V37.44Z"/><path class="cls-1" d="m108.23,27.46c0-18.97,15.77-25.96,33.14-25.96s33.14,6.99,33.14,25.96v95.84c0,18.97-15.77,25.96-33.14,25.96s-33.14-6.99-33.14-25.96V27.46Zm38.14,4.59c0-3.99-.6-9.38-4.99-9.38s-4.99,5.39-4.99,9.38v86.65c0,3.99.6,9.38,4.99,9.38s4.99-5.39,4.99-9.38V32.05Z"/></svg>