<?xml version="1.0" encoding="UTF-8"?><svg id="Layer_1" xmlns="http://www.w3.org/2000/svg" viewBox="0 0 93.17 93.17"><defs><style>.cls-1{fill:#fdd10d;}</style></defs><circle cx="46.59" cy="46.59" r="41.08"/><path d="m46.58,93.17C20.9,93.17,0,72.27,0,46.58S20.9,0,46.58,0s46.58,20.9,46.58,46.58-20.9,46.58-46.58,46.58Zm0-82.17c-19.62,0-35.58,15.96-35.58,35.58s15.96,35.58,35.58,35.58,35.58-15.96,35.58-35.58S66.21,11,46.58,11Z"/><path class="cls-1" d="m46.58,84.57c-20.95,0-37.99-17.04-37.99-37.99S25.64,8.6,46.58,8.6s37.99,17.04,37.99,37.99-17.04,37.99-37.99,37.99Zm0-74.17c-19.95,0-36.18,16.23-36.18,36.18s16.23,36.18,36.18,36.18,36.18-16.23,36.18-36.18S66.54,10.4,46.58,10.4Z"/><circle class="cls-1" cx="46.59" cy="46.59" r="31.98"/><path d="m36.66,36.52l9.93,13.96,9.93-13.96h7.79l-14.51,20.14h-6.41l-14.51-20.14h7.79Z"/></svg>