<?xml version="1.0" encoding="UTF-8"?><svg id="Layer_1" xmlns="http://www.w3.org/2000/svg" viewBox="0 0 923.88 646.46"><defs><style>.cls-1{fill:#ffc629;}</style></defs><path class="cls-1" d="m923.88,0v50.88l-240.19,183.63L923.88,0Zm0,77.42v46.81l-176.11,205.34,176.11-156.41v34.91l-361.85,302.03,295.67-332.09-561.66,468.43h-47.96l336.76-388.05L85.44,646.46H0l520.67-364.93-192.41,86.04L768.01,88.06l-431.2,493.88,302.73-247.61-127.93,82.89L923.88,77.42Zm0,182.21v46.05l-299.99,340.78h-35.76l263.95-297.92-291.13,226.89,122.17-72.59-182.7,143.62h-62.09l485.54-386.84Zm0,86.13v47.89l-140.91,111.22,140.91-159.11Zm-283.93,51.25l-225.7,249.46h-23.26l69.2-79.61-94.8,79.61h-41.47l316.02-249.46Zm-202.7,1.94l-243.16,213.08,129.53-81.32-105.63,115.76h-27.19l44.9-42.56-71.13,42.56h-46.71l319.39-247.52Zm486.63,34.86v44.25l-253.79,168.41h-37.77l291.57-212.66Zm0,69.27v16.58l-107.36,52.3,107.36-68.89Zm0,70.5v8.93l-75.68,63.96h-46.82l122.5-72.89Zm-72.34,5.57l-115.92,67.32h-64.94l180.86-67.32Zm-231.8.62l-59.95,66.7h-24.1l84.04-66.7Zm304.15,40.93v25.77h-31.19l31.19-25.77Zm0,0"/></svg>