<?xml version="1.0" encoding="UTF-8"?><svg id="Layer_1" xmlns="http://www.w3.org/2000/svg" xmlns:xlink="http://www.w3.org/1999/xlink" viewBox="0 0 892.83 637.73"><defs><style>.cls-1{clip-path:url(#clippath);}.cls-2{fill:url(#linear-gradient);}</style><clipPath id="clippath"><path d="m0,637.73l248.05-109.15-220.12,38.35,406.01-119.48-289.95,154.88,545.9-116.53-324.82,151.93h-155.94s269.83-78.18,269.83-78.18l-427.15,78.18H0Zm121.2-126.85l512.58-234.53-185.15,122.43,354.68-120.95-202.59,169.63,292.11-148.96v117.5s-575.73,128.81-575.73,128.81l359.61-188.8L121.2,510.88Zm86.73-123.44L534.84,71.41l-72,153.32L714.52,0h45.51s-55.17,114.18-55.17,114.18L841.26,0h51.57s0,44.74,0,44.74l-297.7,168.18,104.18-148.98-335.99,263,93.15-148.11-248.54,208.6Zm108.27,5.44l292.99-231.58-107.15,131.28,372.02-206.5-98.02,147.5,116.79-89.75v75.77s-272.89,98.05-272.89,98.05l121.15-115.05-424.88,190.28Zm134.34,217.57l312.42-134.96-98.75,106.2,228.61-108.67v72.11s-343.07,88.18-343.07,88.18l127.88-89.24-227.09,66.38Zm0,0"/></clipPath><linearGradient id="linear-gradient" x1="1.95" y1="585.58" x2="599.4" y2="227.11" gradientUnits="userSpaceOnUse"><stop offset="0" stop-color="#fff"/><stop offset=".38" stop-color="#fdd10d"/><stop offset=".52" stop-color="#face0c"/><stop offset=".61" stop-color="#f2c80c"/><stop offset=".68" stop-color="#e4bc0b"/><stop offset=".74" stop-color="#d0ab0a"/><stop offset=".79" stop-color="#b69609"/><stop offset=".85" stop-color="#967c07"/><stop offset=".9" stop-color="#705c05"/><stop offset=".94" stop-color="#443803"/><stop offset=".98" stop-color="#131001"/><stop offset="1" stop-color="#000"/></linearGradient></defs><path d="m0,637.73l248.05-109.15-220.12,38.35,406.01-119.48-289.95,154.88,545.9-116.53-324.82,151.93h-155.94s269.83-78.18,269.83-78.18l-427.15,78.18H0Zm121.2-126.85l512.58-234.53-185.15,122.43,354.68-120.95-202.59,169.63,292.11-148.96v117.5s-575.73,128.81-575.73,128.81l359.61-188.8L121.2,510.88Zm86.73-123.44L534.84,71.41l-72,153.32L714.52,0h45.51s-55.17,114.18-55.17,114.18L841.26,0h51.57s0,44.74,0,44.74l-297.7,168.18,104.18-148.98-335.99,263,93.15-148.11-248.54,208.6Zm108.27,5.44l292.99-231.58-107.15,131.28,372.02-206.5-98.02,147.5,116.79-89.75v75.77s-272.89,98.05-272.89,98.05l121.15-115.05-424.88,190.28Zm134.34,217.57l312.42-134.96-98.75,106.2,228.61-108.67v72.11s-343.07,88.18-343.07,88.18l127.88-89.24-227.09,66.38Zm0,0"/><g class="cls-1"><rect class="cls-2" x=".02" y=".03" width="892.83" height="637.73"/></g></svg>